<mxfile host="Electron" modified="2023-04-25T15:35:40.764Z" agent="Mozilla/5.0 (Windows NT 10.0; Win64; x64) AppleWebKit/537.36 (KHTML, like Gecko) draw.io/21.2.1 Chrome/112.0.5615.87 Electron/24.1.2 Safari/537.36" etag="eFqqMUV4B7XjHFXflQJF" version="21.2.1" type="device">
  <diagram id="0FBmcTxxlBM7EwagE09d" name="Page-1">
    <mxGraphModel dx="846" dy="283" grid="0" gridSize="10" guides="1" tooltips="1" connect="1" arrows="1" fold="1" page="0" pageScale="1" pageWidth="850" pageHeight="1100" math="1" shadow="0">
      <root>
        <mxCell id="0" />
        <mxCell id="1" parent="0" />
        <mxCell id="-H39gwXJbY5dku_L6y5g-25" value="" style="shape=image;aspect=fixed;image=data:image/svg+xml,PD94bWwgdmVyc2lvbj0iMS4wIiBlbmNvZGluZz0iVVRGLTgiIHN0YW5kYWxvbmU9Im5vIj8+CjwhLS0gQ3JlYXRlZCB3aXRoIElua3NjYXBlIChodHRwOi8vd3d3Lmlua3NjYXBlLm9yZy8pIC0tPgoKPHN2ZwogICB3aWR0aD0iNzYuODQ4NTI2bW0iCiAgIGhlaWdodD0iMzguMDMzNzFtbSIKICAgdmlld0JveD0iMCAwIDc2Ljg0ODUyNiAzOC4wMzM3MSIKICAgdmVyc2lvbj0iMS4xIgogICBpZD0ic3ZnNSIKICAgeG1sOnNwYWNlPSJwcmVzZXJ2ZSIKICAgc29kaXBvZGk6ZG9jbmFtZT0iYWJzb3JiZXJfY3VwXzIuc3ZnIgogICBpbmtzY2FwZTp2ZXJzaW9uPSIxLjIgKGRjMmFlZGFmMDMsIDIwMjItMDUtMTUpIgogICBpbmtzY2FwZTpleHBvcnQtZmlsZW5hbWU9ImFic29yYmVyX2N1cF8zLnN2ZyIKICAgaW5rc2NhcGU6ZXhwb3J0LXhkcGk9Ijk2IgogICBpbmtzY2FwZTpleHBvcnQteWRwaT0iOTYiCiAgIHhtbG5zOmlua3NjYXBlPSJodHRwOi8vd3d3Lmlua3NjYXBlLm9yZy9uYW1lc3BhY2VzL2lua3NjYXBlIgogICB4bWxuczpzb2RpcG9kaT0iaHR0cDovL3NvZGlwb2RpLnNvdXJjZWZvcmdlLm5ldC9EVEQvc29kaXBvZGktMC5kdGQiCiAgIHhtbG5zOnhsaW5rPSJodHRwOi8vd3d3LnczLm9yZy8xOTk5L3hsaW5rIgogICB4bWxucz0iaHR0cDovL3d3dy53My5vcmcvMjAwMC9zdmciCiAgIHhtbG5zOnN2Zz0iaHR0cDovL3d3dy53My5vcmcvMjAwMC9zdmciPjxzb2RpcG9kaTpuYW1lZHZpZXcKICAgICBpZD0ibmFtZWR2aWV3MTUxIgogICAgIHBhZ2Vjb2xvcj0iIzUwNTA1MCIKICAgICBib3JkZXJjb2xvcj0iI2VlZWVlZSIKICAgICBib3JkZXJvcGFjaXR5PSIxIgogICAgIGlua3NjYXBlOnNob3dwYWdlc2hhZG93PSIwIgogICAgIGlua3NjYXBlOnBhZ2VvcGFjaXR5PSIwIgogICAgIGlua3NjYXBlOnBhZ2VjaGVja2VyYm9hcmQ9IjAiCiAgICAgaW5rc2NhcGU6ZGVza2NvbG9yPSIjNTA1MDUwIgogICAgIGlua3NjYXBlOmRvY3VtZW50LXVuaXRzPSJtbSIKICAgICBzaG93Z3JpZD0iZmFsc2UiCiAgICAgaW5rc2NhcGU6em9vbT0iMy4wNDAwMTE1IgogICAgIGlua3NjYXBlOmN4PSIxMzkuMTQ0MjEiCiAgICAgaW5rc2NhcGU6Y3k9IjkxLjExODA3NyIKICAgICBpbmtzY2FwZTp3aW5kb3ctd2lkdGg9IjE5MjAiCiAgICAgaW5rc2NhcGU6d2luZG93LWhlaWdodD0iMTEwNiIKICAgICBpbmtzY2FwZTp3aW5kb3cteD0iMTkwOSIKICAgICBpbmtzY2FwZTp3aW5kb3cteT0iLTExIgogICAgIGlua3NjYXBlOndpbmRvdy1tYXhpbWl6ZWQ9IjEiCiAgICAgaW5rc2NhcGU6Y3VycmVudC1sYXllcj0ic3ZnNSIgLz48ZGVmcwogICAgIGlkPSJkZWZzMiI+PG1hcmtlcgogICAgICAgc3R5bGU9Im92ZXJmbG93OnZpc2libGUiCiAgICAgICBpZD0ibWFya2VyMjI5ODIiCiAgICAgICByZWZYPSIwIgogICAgICAgcmVmWT0iMCIKICAgICAgIG9yaWVudD0iYXV0by1zdGFydC1yZXZlcnNlIgogICAgICAgbWFya2VyV2lkdGg9IjYuMTM0NzUyMyIKICAgICAgIG1hcmtlckhlaWdodD0iNS45MzA0OTQ4IgogICAgICAgdmlld0JveD0iMCAwIDYuMTM0NzUyNCA1LjkzMDQ5NTEiCiAgICAgICBwcmVzZXJ2ZUFzcGVjdFJhdGlvPSJ4TWlkWU1pZCI+PHBhdGgKICAgICAgICAgdHJhbnNmb3JtPSJzY2FsZSgwLjcpIgogICAgICAgICBkPSJtIC0wLjIxMTE0NTYyLC00LjEwNTU3MjggNi40MjIyOTEyMiwzLjIxMTE0NTYxIGEgMSwxIDkwIDAgMSAwLDEuNzg4ODU0MzggTCAtMC4yMTExNDU2Miw0LjEwNTU3MjggQSAxLjIzNjA2OCwxLjIzNjA2OCAzMS43MTc0NzQgMCAxIC0yLDMgdiAtNiBhIDEuMjM2MDY4LDEuMjM2MDY4IDE0OC4yODI1MyAwIDEgMS43ODg4NTQzOCwtMS4xMDU1NzI4IHoiCiAgICAgICAgIHN0eWxlPSJmaWxsOmNvbnRleHQtc3Ryb2tlO2ZpbGwtcnVsZTpldmVub2RkO3N0cm9rZTpub25lIgogICAgICAgICBpZD0icGF0aDIyOTgwIiAvPjwvbWFya2VyPjxtYXJrZXIKICAgICAgIHN0eWxlPSJvdmVyZmxvdzp2aXNpYmxlIgogICAgICAgaWQ9IkFycm93MSIKICAgICAgIHJlZlg9IjAiCiAgICAgICByZWZZPSIwIgogICAgICAgb3JpZW50PSJhdXRvLXN0YXJ0LXJldmVyc2UiCiAgICAgICBtYXJrZXJXaWR0aD0iNC4wNjA2NTk5IgogICAgICAgbWFya2VySGVpZ2h0PSI2LjcwNzEwNjYiCiAgICAgICB2aWV3Qm94PSIwIDAgNC4wNjA2NjAyIDYuNzA3MTA2OCIKICAgICAgIHByZXNlcnZlQXNwZWN0UmF0aW89InhNaWRZTWlkIj48cGF0aAogICAgICAgICBzdHlsZT0iZmlsbDpub25lO3N0cm9rZTpjb250ZXh0LXN0cm9rZTtzdHJva2Utd2lkdGg6MTtzdHJva2UtbGluZWNhcDpidXR0IgogICAgICAgICBkPSJNIDMsLTMgMCwwIDMsMyIKICAgICAgICAgaWQ9InBhdGg1MDU3IgogICAgICAgICB0cmFuc2Zvcm09InJvdGF0ZSgxODAsMC4xMjUsMCkiIC8+PC9tYXJrZXI+PGxpbmVhckdyYWRpZW50CiAgICAgICBpZD0ibGluZWFyR3JhZGllbnQxMjc0NCI+PHN0b3AKICAgICAgICAgc3R5bGU9InN0b3AtY29sb3I6I2ZmMDAwMDtzdG9wLW9wYWNpdHk6MTsiCiAgICAgICAgIG9mZnNldD0iMCIKICAgICAgICAgaWQ9InN0b3AxMjc0MCIgLz48c3RvcAogICAgICAgICBzdHlsZT0ic3RvcC1jb2xvcjojMDAwMGZmO3N0b3Atb3BhY2l0eToxOyIKICAgICAgICAgb2Zmc2V0PSIwIgogICAgICAgICBpZD0ic3RvcDE0Njk2IiAvPjxzdG9wCiAgICAgICAgIHN0eWxlPSJzdG9wLWNvbG9yOiNmZjAwMDA7c3RvcC1vcGFjaXR5OjE7IgogICAgICAgICBvZmZzZXQ9IjEiCiAgICAgICAgIGlkPSJzdG9wMTI3NDIiIC8+PC9saW5lYXJHcmFkaWVudD48bWFya2VyCiAgICAgICBzdHlsZT0ib3ZlcmZsb3c6dmlzaWJsZSIKICAgICAgIGlkPSJSb3VuZGVkQXJyb3ciCiAgICAgICByZWZYPSIwIgogICAgICAgcmVmWT0iMCIKICAgICAgIG9yaWVudD0iYXV0by1zdGFydC1yZXZlcnNlIgogICAgICAgbWFya2VyV2lkdGg9IjYuMTM0NzUyMyIKICAgICAgIG1hcmtlckhlaWdodD0iNS45MzA0OTQ4IgogICAgICAgdmlld0JveD0iMCAwIDYuMTM0NzUyNCA1LjkzMDQ5NTEiCiAgICAgICBwcmVzZXJ2ZUFzcGVjdFJhdGlvPSJ4TWlkWU1pZCI+PHBhdGgKICAgICAgICAgdHJhbnNmb3JtPSJzY2FsZSgwLjcpIgogICAgICAgICBkPSJtIC0wLjIxMTE0NTYyLC00LjEwNTU3MjggNi40MjIyOTEyMiwzLjIxMTE0NTYxIGEgMSwxIDkwIDAgMSAwLDEuNzg4ODU0MzggTCAtMC4yMTExNDU2Miw0LjEwNTU3MjggQSAxLjIzNjA2OCwxLjIzNjA2OCAzMS43MTc0NzQgMCAxIC0yLDMgdiAtNiBhIDEuMjM2MDY4LDEuMjM2MDY4IDE0OC4yODI1MyAwIDEgMS43ODg4NTQzOCwtMS4xMDU1NzI4IHoiCiAgICAgICAgIHN0eWxlPSJmaWxsOmNvbnRleHQtc3Ryb2tlO2ZpbGwtcnVsZTpldmVub2RkO3N0cm9rZTpub25lIgogICAgICAgICBpZD0icGF0aDEzNjciIC8+PC9tYXJrZXI+PHBhdHRlcm4KICAgICAgIHhsaW5rOmhyZWY9IiNTdHJpcHMxXzEwIgogICAgICAgaWQ9InBhdHRlcm41MTY5IgogICAgICAgcGF0dGVyblRyYW5zZm9ybT0ibWF0cml4KDAuMjUyMTUyMjYsMC4yNTkzMDg2OCwtNS42ODcwOTE5LDUuNTMwMTM4OCwwLDApIiAvPjxsaW5lYXJHcmFkaWVudAogICAgICAgaWQ9ImxpbmVhckdyYWRpZW50NTE2MSI+PHN0b3AKICAgICAgICAgc3R5bGU9InN0b3AtY29sb3I6IzAwMDAwMDtzdG9wLW9wYWNpdHk6MTsiCiAgICAgICAgIG9mZnNldD0iMCIKICAgICAgICAgaWQ9InN0b3A1MTU5IiAvPjwvbGluZWFyR3JhZGllbnQ+PHBhdHRlcm4KICAgICAgIHhsaW5rOmhyZWY9IiNTdHJpcHMxXzEwIgogICAgICAgaWQ9InBhdHRlcm40NDI5IgogICAgICAgcGF0dGVyblRyYW5zZm9ybT0ibWF0cml4KDAuMzM5MTY5MDYsLTAuMzQxMTUwNDksNy41MDUzMTA1LDcuNDYxNzE4NiwwLDApIiAvPjxwYXR0ZXJuCiAgICAgICB4bGluazpocmVmPSIjU3RyaXBzMV8xMCIKICAgICAgIGlkPSJwYXR0ZXJuNDQyNyIKICAgICAgIHBhdHRlcm5UcmFuc2Zvcm09Im1hdHJpeCgwLjMzOTI4NjIzLC0wLjM0MTAzMzk2LDcuNTAyNzQ3MSw3LjQ2NDI5NywwLDApIiAvPjxwYXR0ZXJuCiAgICAgICB4bGluazpocmVmPSIjU3RyaXBzMV8xMCIKICAgICAgIGlkPSJwYXR0ZXJuNDQyMSIKICAgICAgIHBhdHRlcm5UcmFuc2Zvcm09Im1hdHJpeCgwLjIwMzA1NDQzLDAuMTYwNTQxNzksLTQuODc5NDMyMSw2LjE3MTU0MDMsMCwwKSIgLz48cGF0dGVybgogICAgICAgeGxpbms6aHJlZj0iI1N0cmlwczFfMTAiCiAgICAgICBpZD0icGF0dGVybjQ0MTkiCiAgICAgICBwYXR0ZXJuVHJhbnNmb3JtPSJtYXRyaXgoMC4yMDA5NzU3MSwwLjE1NzIyMzk4LC00Ljg1NjU2NjEsNi4yMDgwMzYzLDAsMCkiIC8+PHBhdHRlcm4KICAgICAgIHhsaW5rOmhyZWY9IiNTdHJpcHMxXzEwIgogICAgICAgaWQ9InBhdHRlcm40NDEzIgogICAgICAgcGF0dGVyblRyYW5zZm9ybT0ibWF0cml4KDAuMTE4MDkzMzMsLTAuMTY5Mjk3MSwyLjY2OTcyMzMsMS44NjIyNjgxLDAsMCkiIC8+PHBhdHRlcm4KICAgICAgIHhsaW5rOmhyZWY9IiNTdHJpcHMxXzEwIgogICAgICAgaWQ9InBhdHRlcm40NDExIgogICAgICAgcGF0dGVyblRyYW5zZm9ybT0ibWF0cml4KDAuMTE0OTA2MjEsLTAuMTY4MDg5ODUsMi43MDQ3ODE3LDEuODQ4OTg4NCwwLDApIiAvPjxwYXR0ZXJuCiAgICAgICBwYXR0ZXJuVW5pdHM9InVzZXJTcGFjZU9uVXNlIgogICAgICAgd2lkdGg9IjExIgogICAgICAgaGVpZ2h0PSIxIgogICAgICAgcGF0dGVyblRyYW5zZm9ybT0idHJhbnNsYXRlKDAsMCkgc2NhbGUoMTAsMTApIgogICAgICAgaWQ9IlN0cmlwczFfMTAiPjxyZWN0CiAgICAgICAgIHN0eWxlPSJmaWxsOmJsYWNrO3N0cm9rZTpub25lIgogICAgICAgICB4PSIwIgogICAgICAgICB5PSItMC41IgogICAgICAgICB3aWR0aD0iMSIKICAgICAgICAgaGVpZ2h0PSIyIgogICAgICAgICBpZD0icmVjdDMzOTgiIC8+PC9wYXR0ZXJuPjxwYXR0ZXJuCiAgICAgICB4bGluazpocmVmPSIjU3RyaXBzMV8xLjUiCiAgICAgICBpZD0icGF0dGVybjQzODkiCiAgICAgICBwYXR0ZXJuVHJhbnNmb3JtPSJtYXRyaXgoLTEuNzQ5NTQ4NGUtNCwxLjA1ODk0NTQsLTkuMjU5OTc5NiwtMC4wMDE1Mjk4OCwzNC4zOTU4MzMsMjMuODEyNDk5KSIgLz48cGF0dGVybgogICAgICAgcGF0dGVyblVuaXRzPSJ1c2VyU3BhY2VPblVzZSIKICAgICAgIHdpZHRoPSIyLjUiCiAgICAgICBoZWlnaHQ9IjEiCiAgICAgICBwYXR0ZXJuVHJhbnNmb3JtPSJ0cmFuc2xhdGUoMCwwKSBzY2FsZSgxMCwxMCkiCiAgICAgICBpZD0iU3RyaXBzMV8xLjUiPjxyZWN0CiAgICAgICAgIHN0eWxlPSJmaWxsOmJsYWNrO3N0cm9rZTpub25lIgogICAgICAgICB4PSIwIgogICAgICAgICB5PSItMC41IgogICAgICAgICB3aWR0aD0iMSIKICAgICAgICAgaGVpZ2h0PSIyIgogICAgICAgICBpZD0icmVjdDMzNjIiIC8+PC9wYXR0ZXJuPjxwYXR0ZXJuCiAgICAgICB4bGluazpocmVmPSIjU3RyaXBzMV8xMC0zIgogICAgICAgaWQ9InBhdHRlcm41MTY5LTEiCiAgICAgICBwYXR0ZXJuVHJhbnNmb3JtPSJtYXRyaXgoMC4yNTIxNTIyNiwwLjI1OTMwODY4LC01LjY4NzA5MTksNS41MzAxMzg4LDYuNjY2NjY2NWUtNyw0Mi4zMzMzMzQpIiAvPjxwYXR0ZXJuCiAgICAgICBwYXR0ZXJuVW5pdHM9InVzZXJTcGFjZU9uVXNlIgogICAgICAgd2lkdGg9IjExIgogICAgICAgaGVpZ2h0PSIxIgogICAgICAgcGF0dGVyblRyYW5zZm9ybT0idHJhbnNsYXRlKDAsMCkgc2NhbGUoMTAsMTApIgogICAgICAgaWQ9IlN0cmlwczFfMTAtMyI+PHJlY3QKICAgICAgICAgc3R5bGU9ImZpbGw6YmxhY2s7c3Ryb2tlOm5vbmUiCiAgICAgICAgIHg9IjAiCiAgICAgICAgIHk9Ii0wLjUiCiAgICAgICAgIHdpZHRoPSIxIgogICAgICAgICBoZWlnaHQ9IjIiCiAgICAgICAgIGlkPSJyZWN0MzM5OC0xIiAvPjwvcGF0dGVybj48bGluZWFyR3JhZGllbnQKICAgICAgIHhsaW5rOmhyZWY9IiNsaW5lYXJHcmFkaWVudDEyNzQ0IgogICAgICAgaWQ9ImxpbmVhckdyYWRpZW50MTI3NDYiCiAgICAgICB4MT0iMzQuMzk1ODM2IgogICAgICAgeTE9IjQ4LjI3MTA5NSIKICAgICAgIHgyPSIxMjMuMDQyNjMiCiAgICAgICB5Mj0iNDguMjcxMDk1IgogICAgICAgZ3JhZGllbnRVbml0cz0idXNlclNwYWNlT25Vc2UiCiAgICAgICBncmFkaWVudFRyYW5zZm9ybT0ibWF0cml4KDAuMTMzNTkzOTMsMCwwLDAuNjE1MjU3NTksMTYuMzY3Nzk4LC05LjY4OTA1NjkpIiAvPjxtYXJrZXIKICAgICAgIHN0eWxlPSJvdmVyZmxvdzp2aXNpYmxlIgogICAgICAgaWQ9IlJvdW5kZWRBcnJvdy05IgogICAgICAgcmVmWD0iMCIKICAgICAgIHJlZlk9IjAiCiAgICAgICBvcmllbnQ9ImF1dG8tc3RhcnQtcmV2ZXJzZSIKICAgICAgIG1hcmtlcldpZHRoPSI2LjEzNDc1MjMiCiAgICAgICBtYXJrZXJIZWlnaHQ9IjUuOTMwNDk0OCIKICAgICAgIHZpZXdCb3g9IjAgMCA2LjEzNDc1MjQgNS45MzA0OTUxIgogICAgICAgcHJlc2VydmVBc3BlY3RSYXRpbz0ieE1pZFlNaWQiPjxwYXRoCiAgICAgICAgIHRyYW5zZm9ybT0ic2NhbGUoMC43KSIKICAgICAgICAgZD0ibSAtMC4yMTExNDU2MiwtNC4xMDU1NzI4IDYuNDIyMjkxMjIsMy4yMTExNDU2MSBhIDEsMSA5MCAwIDEgMCwxLjc4ODg1NDM4IEwgLTAuMjExMTQ1NjIsNC4xMDU1NzI4IEEgMS4yMzYwNjgsMS4yMzYwNjggMzEuNzE3NDc0IDAgMSAtMiwzIHYgLTYgYSAxLjIzNjA2OCwxLjIzNjA2OCAxNDguMjgyNTMgMCAxIDEuNzg4ODU0MzgsLTEuMTA1NTcyOCB6IgogICAgICAgICBzdHlsZT0iZmlsbDpjb250ZXh0LXN0cm9rZTtmaWxsLXJ1bGU6ZXZlbm9kZDtzdHJva2U6bm9uZSIKICAgICAgICAgaWQ9InBhdGgxMzY3LTIiIC8+PC9tYXJrZXI+PG1hcmtlcgogICAgICAgc3R5bGU9Im92ZXJmbG93OnZpc2libGUiCiAgICAgICBpZD0iQXJyb3cxLTYiCiAgICAgICByZWZYPSIwIgogICAgICAgcmVmWT0iMCIKICAgICAgIG9yaWVudD0iYXV0by1zdGFydC1yZXZlcnNlIgogICAgICAgbWFya2VyV2lkdGg9IjQuMDYwNjU5OSIKICAgICAgIG1hcmtlckhlaWdodD0iNi43MDcxMDY2IgogICAgICAgdmlld0JveD0iMCAwIDQuMDYwNjYwMiA2LjcwNzEwNjgiCiAgICAgICBwcmVzZXJ2ZUFzcGVjdFJhdGlvPSJ4TWlkWU1pZCI+PHBhdGgKICAgICAgICAgc3R5bGU9ImZpbGw6bm9uZTtzdHJva2U6Y29udGV4dC1zdHJva2U7c3Ryb2tlLXdpZHRoOjE7c3Ryb2tlLWxpbmVjYXA6YnV0dCIKICAgICAgICAgZD0iTSAzLC0zIDAsMCAzLDMiCiAgICAgICAgIGlkPSJwYXRoNTA1Ny0zIgogICAgICAgICB0cmFuc2Zvcm09InJvdGF0ZSgxODAsMC4xMjUsMCkiIC8+PC9tYXJrZXI+PG1hcmtlcgogICAgICAgc3R5bGU9Im92ZXJmbG93OnZpc2libGUiCiAgICAgICBpZD0iQXJyb3cxLTgiCiAgICAgICByZWZYPSIwIgogICAgICAgcmVmWT0iMCIKICAgICAgIG9yaWVudD0iYXV0by1zdGFydC1yZXZlcnNlIgogICAgICAgbWFya2VyV2lkdGg9IjQuMDYwNjU5OSIKICAgICAgIG1hcmtlckhlaWdodD0iNi43MDcxMDY2IgogICAgICAgdmlld0JveD0iMCAwIDQuMDYwNjYwMiA2LjcwNzEwNjgiCiAgICAgICBwcmVzZXJ2ZUFzcGVjdFJhdGlvPSJ4TWlkWU1pZCI+PHBhdGgKICAgICAgICAgc3R5bGU9ImZpbGw6bm9uZTtzdHJva2U6Y29udGV4dC1zdHJva2U7c3Ryb2tlLXdpZHRoOjE7c3Ryb2tlLWxpbmVjYXA6YnV0dCIKICAgICAgICAgZD0iTSAzLC0zIDAsMCAzLDMiCiAgICAgICAgIGlkPSJwYXRoNTA1Ny05IgogICAgICAgICB0cmFuc2Zvcm09InJvdGF0ZSgxODAsMC4xMjUsMCkiIC8+PC9tYXJrZXI+PG1hcmtlcgogICAgICAgc3R5bGU9Im92ZXJmbG93OnZpc2libGUiCiAgICAgICBpZD0ibWFya2VyMjI5ODItOCIKICAgICAgIHJlZlg9IjAiCiAgICAgICByZWZZPSIwIgogICAgICAgb3JpZW50PSJhdXRvLXN0YXJ0LXJldmVyc2UiCiAgICAgICBtYXJrZXJXaWR0aD0iNi4xMzQ3NTIzIgogICAgICAgbWFya2VySGVpZ2h0PSI1LjkzMDQ5NTMiCiAgICAgICB2aWV3Qm94PSIwIDAgNi4xMzQ3NTI0IDUuOTMwNDk1MSIKICAgICAgIHByZXNlcnZlQXNwZWN0UmF0aW89InhNaWRZTWlkIj48cGF0aAogICAgICAgICB0cmFuc2Zvcm09InNjYWxlKDAuNykiCiAgICAgICAgIGQ9Im0gLTAuMjExMTQ1NjIsLTQuMTA1NTcyOCA2LjQyMjI5MTIyLDMuMjExMTQ1NjEgYSAxLDEgOTAgMCAxIDAsMS43ODg4NTQzOCBMIC0wLjIxMTE0NTYyLDQuMTA1NTcyOCBBIDEuMjM2MDY4LDEuMjM2MDY4IDMxLjcxNzQ3NCAwIDEgLTIsMyB2IC02IGEgMS4yMzYwNjgsMS4yMzYwNjggMTQ4LjI4MjUzIDAgMSAxLjc4ODg1NDM4LC0xLjEwNTU3MjggeiIKICAgICAgICAgc3R5bGU9ImZpbGw6Y29udGV4dC1zdHJva2U7ZmlsbC1ydWxlOmV2ZW5vZGQ7c3Ryb2tlOm5vbmUiCiAgICAgICAgIGlkPSJwYXRoMjI5ODAtOSIgLz48L21hcmtlcj48bWFya2VyCiAgICAgICBzdHlsZT0ib3ZlcmZsb3c6dmlzaWJsZSIKICAgICAgIGlkPSJtYXJrZXIyMjk4Mi04NSIKICAgICAgIHJlZlg9IjAiCiAgICAgICByZWZZPSIwIgogICAgICAgb3JpZW50PSJhdXRvLXN0YXJ0LXJldmVyc2UiCiAgICAgICBtYXJrZXJXaWR0aD0iNi4xMzQ3NTIzIgogICAgICAgbWFya2VySGVpZ2h0PSI1LjkzMDQ5NTMiCiAgICAgICB2aWV3Qm94PSIwIDAgNi4xMzQ3NTI0IDUuOTMwNDk1MSIKICAgICAgIHByZXNlcnZlQXNwZWN0UmF0aW89InhNaWRZTWlkIj48cGF0aAogICAgICAgICB0cmFuc2Zvcm09InNjYWxlKDAuNykiCiAgICAgICAgIGQ9Im0gLTAuMjExMTQ1NjIsLTQuMTA1NTcyOCA2LjQyMjI5MTIyLDMuMjExMTQ1NjEgYSAxLDEgOTAgMCAxIDAsMS43ODg4NTQzOCBMIC0wLjIxMTE0NTYyLDQuMTA1NTcyOCBBIDEuMjM2MDY4LDEuMjM2MDY4IDMxLjcxNzQ3NCAwIDEgLTIsMyB2IC02IGEgMS4yMzYwNjgsMS4yMzYwNjggMTQ4LjI4MjUzIDAgMSAxLjc4ODg1NDM4LC0xLjEwNTU3MjggeiIKICAgICAgICAgc3R5bGU9ImZpbGw6Y29udGV4dC1zdHJva2U7ZmlsbC1ydWxlOmV2ZW5vZGQ7c3Ryb2tlOm5vbmUiCiAgICAgICAgIGlkPSJwYXRoMjI5ODAtNCIgLz48L21hcmtlcj48bWFya2VyCiAgICAgICBzdHlsZT0ib3ZlcmZsb3c6dmlzaWJsZSIKICAgICAgIHJlZlg9IjAiCiAgICAgICByZWZZPSIwIgogICAgICAgb3JpZW50PSJhdXRvLXN0YXJ0LXJldmVyc2UiCiAgICAgICBtYXJrZXJXaWR0aD0iNi4xMzQ3NTIzIgogICAgICAgbWFya2VySGVpZ2h0PSI1LjkzMDQ5NDgiCiAgICAgICB2aWV3Qm94PSIwIDAgNi4xMzQ3NTI0IDUuOTMwNDk1MSIKICAgICAgIHByZXNlcnZlQXNwZWN0UmF0aW89InhNaWRZTWlkIgogICAgICAgaWQ9Im1hcmtlcjIyOTgyOTExNiIKICAgICAgIGlua3NjYXBlOnN0b2NraWQ9Im1hcmtlcjIyOTgyOTExNiI+PHBhdGgKICAgICAgICAgdHJhbnNmb3JtPSJzY2FsZSgwLjcpIgogICAgICAgICBkPSJtIC0wLjIxMTE0NTYyLC00LjEwNTU3MjggNi40MjIyOTEyMiwzLjIxMTE0NTYxIGEgMSwxIDkwIDAgMSAwLDEuNzg4ODU0MzggTCAtMC4yMTExNDU2Miw0LjEwNTU3MjggQSAxLjIzNjA2OCwxLjIzNjA2OCAzMS43MTc0NzQgMCAxIC0yLDMgdiAtNiBhIDEuMjM2MDY4LDEuMjM2MDY4IDE0OC4yODI1MyAwIDEgMS43ODg4NTQzOCwtMS4xMDU1NzI4IHoiCiAgICAgICAgIHN0eWxlPSJmaWxsOiMzMDYyZGM7ZmlsbC1ydWxlOmV2ZW5vZGQ7c3Ryb2tlOiMwMDAwMDA7ZmlsbC1vcGFjaXR5OjAuNDc4NDMxMzcyNTQ5MDE5NjMiCiAgICAgICAgIGlkPSJwYXRoODU4MiIgLz48L21hcmtlcj48bWFya2VyCiAgICAgICBzdHlsZT0ib3ZlcmZsb3c6dmlzaWJsZSIKICAgICAgIHJlZlg9IjAiCiAgICAgICByZWZZPSIwIgogICAgICAgb3JpZW50PSJhdXRvLXN0YXJ0LXJldmVyc2UiCiAgICAgICBtYXJrZXJXaWR0aD0iNi4xMzQ3NTIzIgogICAgICAgbWFya2VySGVpZ2h0PSI1LjkzMDQ5NDgiCiAgICAgICB2aWV3Qm94PSIwIDAgNi4xMzQ3NTI0IDUuOTMwNDk1MSIKICAgICAgIHByZXNlcnZlQXNwZWN0UmF0aW89InhNaWRZTWlkIgogICAgICAgaW5rc2NhcGU6c3RvY2tpZD0ibWFya2VyMjI5ODI5MTE2MTMzMyIKICAgICAgIGlkPSJtYXJrZXIyMjk4MjkxMTYxMzMzIj48cGF0aAogICAgICAgICB0cmFuc2Zvcm09InNjYWxlKDAuNykiCiAgICAgICAgIGQ9Im0gLTAuMjExMTQ1NjIsLTQuMTA1NTcyOCA2LjQyMjI5MTIyLDMuMjExMTQ1NjEgYSAxLDEgOTAgMCAxIDAsMS43ODg4NTQzOCBMIC0wLjIxMTE0NTYyLDQuMTA1NTcyOCBBIDEuMjM2MDY4LDEuMjM2MDY4IDMxLjcxNzQ3NCAwIDEgLTIsMyB2IC02IGEgMS4yMzYwNjgsMS4yMzYwNjggMTQ4LjI4MjUzIDAgMSAxLjc4ODg1NDM4LC0xLjEwNTU3MjggeiIKICAgICAgICAgc3R5bGU9ImZpbGw6IzQ0OWZjODtmaWxsLXJ1bGU6ZXZlbm9kZDtzdHJva2U6I2UzYmZlODtmaWxsLW9wYWNpdHk6MC40Nzg0MzEzNzI1NDkwMTk2MztzdHJva2Utb3BhY2l0eTowLjg4NjI3NDUwOTgwMzkyMTUiCiAgICAgICAgIGlkPSJwYXRoMTI2OTAiIC8+PC9tYXJrZXI+PG1hcmtlcgogICAgICAgc3R5bGU9Im92ZXJmbG93OnZpc2libGUiCiAgICAgICByZWZYPSIwIgogICAgICAgcmVmWT0iMCIKICAgICAgIG9yaWVudD0iYXV0by1zdGFydC1yZXZlcnNlIgogICAgICAgbWFya2VyV2lkdGg9IjYuMTM0NzUyMyIKICAgICAgIG1hcmtlckhlaWdodD0iNS45MzA0OTQ4IgogICAgICAgdmlld0JveD0iMCAwIDYuMTM0NzUyNCA1LjkzMDQ5NTEiCiAgICAgICBwcmVzZXJ2ZUFzcGVjdFJhdGlvPSJ4TWlkWU1pZCIKICAgICAgIGlua3NjYXBlOnN0b2NraWQ9Im1hcmtlcjIyOTgyOTExNjEzMzM4MTAyIgogICAgICAgaWQ9Im1hcmtlcjIyOTgyOTExNjEzMzM4MTAyIj48cGF0aAogICAgICAgICB0cmFuc2Zvcm09InNjYWxlKDAuNykiCiAgICAgICAgIGQ9Im0gLTAuMjExMTQ1NjIsLTQuMTA1NTcyOCA2LjQyMjI5MTIyLDMuMjExMTQ1NjEgYSAxLDEgOTAgMCAxIDAsMS43ODg4NTQzOCBMIC0wLjIxMTE0NTYyLDQuMTA1NTcyOCBBIDEuMjM2MDY4LDEuMjM2MDY4IDMxLjcxNzQ3NCAwIDEgLTIsMyB2IC02IGEgMS4yMzYwNjgsMS4yMzYwNjggMTQ4LjI4MjUzIDAgMSAxLjc4ODg1NDM4LC0xLjEwNTU3MjggeiIKICAgICAgICAgc3R5bGU9ImZpbGw6IzQ0OWZjODtmaWxsLXJ1bGU6ZXZlbm9kZDtzdHJva2U6I2UzYmZlODtmaWxsLW9wYWNpdHk6MC40Nzg0MzEzNzI1NDkwMTk2MztzdHJva2Utb3BhY2l0eTowLjg4NjI3NDUwOTgwMzkyMTUiCiAgICAgICAgIGlkPSJwYXRoMTMwOTQiIC8+PC9tYXJrZXI+PG1hcmtlcgogICAgICAgc3R5bGU9Im92ZXJmbG93OnZpc2libGUiCiAgICAgICByZWZYPSIwIgogICAgICAgcmVmWT0iMCIKICAgICAgIG9yaWVudD0iYXV0by1zdGFydC1yZXZlcnNlIgogICAgICAgbWFya2VyV2lkdGg9IjYuMTM0NzUyMyIKICAgICAgIG1hcmtlckhlaWdodD0iNS45MzA0OTQ4IgogICAgICAgdmlld0JveD0iMCAwIDYuMTM0NzUyNCA1LjkzMDQ5NTEiCiAgICAgICBwcmVzZXJ2ZUFzcGVjdFJhdGlvPSJ4TWlkWU1pZCIKICAgICAgIGlua3NjYXBlOnN0b2NraWQ9Im1hcmtlcjIyOTgyOTExNjEzMzM4MTAyNzM1MSIKICAgICAgIGlkPSJtYXJrZXIyMjk4MjkxMTYxMzMzODEwMjczNTEiPjxwYXRoCiAgICAgICAgIHRyYW5zZm9ybT0ic2NhbGUoMC43KSIKICAgICAgICAgZD0ibSAtMC4yMTExNDU2MiwtNC4xMDU1NzI4IDYuNDIyMjkxMjIsMy4yMTExNDU2MSBhIDEsMSA5MCAwIDEgMCwxLjc4ODg1NDM4IEwgLTAuMjExMTQ1NjIsNC4xMDU1NzI4IEEgMS4yMzYwNjgsMS4yMzYwNjggMzEuNzE3NDc0IDAgMSAtMiwzIHYgLTYgYSAxLjIzNjA2OCwxLjIzNjA2OCAxNDguMjgyNTMgMCAxIDEuNzg4ODU0MzgsLTEuMTA1NTcyOCB6IgogICAgICAgICBzdHlsZT0iZmlsbDojNDQ5ZmM4O2ZpbGwtb3BhY2l0eTowLjQ3ODQzMTtmaWxsLXJ1bGU6ZXZlbm9kZDtzdHJva2U6I2UzYmZlODtzdHJva2Utb3BhY2l0eTowLjg4NjI3NSIKICAgICAgICAgaWQ9InBhdGgxMzM5MCIgLz48L21hcmtlcj48bWFya2VyCiAgICAgICBzdHlsZT0ib3ZlcmZsb3c6dmlzaWJsZSIKICAgICAgIHJlZlg9IjAiCiAgICAgICByZWZZPSIwIgogICAgICAgb3JpZW50PSJhdXRvLXN0YXJ0LXJldmVyc2UiCiAgICAgICBtYXJrZXJXaWR0aD0iNi4xMzQ3NTIzIgogICAgICAgbWFya2VySGVpZ2h0PSI1LjkzMDQ5NDgiCiAgICAgICB2aWV3Qm94PSIwIDAgNi4xMzQ3NTI0IDUuOTMwNDk1MSIKICAgICAgIHByZXNlcnZlQXNwZWN0UmF0aW89InhNaWRZTWlkIgogICAgICAgaW5rc2NhcGU6c3RvY2tpZD0ibWFya2VyMjI5ODI5MTE2MTMzMzgxMDI3MzUxNTQxMiIKICAgICAgIGlkPSJtYXJrZXIyMjk4MjkxMTYxMzMzODEwMjczNTE1NDEyIj48cGF0aAogICAgICAgICB0cmFuc2Zvcm09InNjYWxlKDAuNykiCiAgICAgICAgIGQ9Im0gLTAuMjExMTQ1NjIsLTQuMTA1NTcyOCA2LjQyMjI5MTIyLDMuMjExMTQ1NjEgYSAxLDEgOTAgMCAxIDAsMS43ODg4NTQzOCBMIC0wLjIxMTE0NTYyLDQuMTA1NTcyOCBBIDEuMjM2MDY4LDEuMjM2MDY4IDMxLjcxNzQ3NCAwIDEgLTIsMyB2IC02IGEgMS4yMzYwNjgsMS4yMzYwNjggMTQ4LjI4MjUzIDAgMSAxLjc4ODg1NDM4LC0xLjEwNTU3MjggeiIKICAgICAgICAgc3R5bGU9ImZpbGw6IzQ0OWZjODtmaWxsLW9wYWNpdHk6MC40Nzg0MzE7ZmlsbC1ydWxlOmV2ZW5vZGQ7c3Ryb2tlOiNlM2JmZTg7c3Ryb2tlLW9wYWNpdHk6MC44ODYyNzUiCiAgICAgICAgIGlkPSJwYXRoMTQyOTYiIC8+PC9tYXJrZXI+PG1hcmtlcgogICAgICAgc3R5bGU9Im92ZXJmbG93OnZpc2libGUiCiAgICAgICByZWZYPSIwIgogICAgICAgcmVmWT0iMCIKICAgICAgIG9yaWVudD0iYXV0by1zdGFydC1yZXZlcnNlIgogICAgICAgbWFya2VyV2lkdGg9IjYuMTM0NzUyMyIKICAgICAgIG1hcmtlckhlaWdodD0iNS45MzA0OTQ4IgogICAgICAgdmlld0JveD0iMCAwIDYuMTM0NzUyNCA1LjkzMDQ5NTEiCiAgICAgICBwcmVzZXJ2ZUFzcGVjdFJhdGlvPSJ4TWlkWU1pZCIKICAgICAgIGlua3NjYXBlOnN0b2NraWQ9Im1hcmtlcjIyOTgyOTExNjEzMzM4MTAyNzM1MTU0MTI4OTUiCiAgICAgICBpZD0ibWFya2VyMjI5ODI5MTE2MTMzMzgxMDI3MzUxNTQxMjg5NSI+PHBhdGgKICAgICAgICAgdHJhbnNmb3JtPSJzY2FsZSgwLjcpIgogICAgICAgICBkPSJtIC0wLjIxMTE0NTYyLC00LjEwNTU3MjggNi40MjIyOTEyMiwzLjIxMTE0NTYxIGEgMSwxIDkwIDAgMSAwLDEuNzg4ODU0MzggTCAtMC4yMTExNDU2Miw0LjEwNTU3MjggQSAxLjIzNjA2OCwxLjIzNjA2OCAzMS43MTc0NzQgMCAxIC0yLDMgdiAtNiBhIDEuMjM2MDY4LDEuMjM2MDY4IDE0OC4yODI1MyAwIDEgMS43ODg4NTQzOCwtMS4xMDU1NzI4IHoiCiAgICAgICAgIHN0eWxlPSJmaWxsOiNmZjZmMDA7ZmlsbC1vcGFjaXR5OjAuNDc4NDMxO2ZpbGwtcnVsZTpldmVub2RkO3N0cm9rZTojZmY2ZjAwO3N0cm9rZS1vcGFjaXR5OjAuODg2Mjc1IgogICAgICAgICBpZD0icGF0aDE0NjI2IiAvPjwvbWFya2VyPjxtYXJrZXIKICAgICAgIHN0eWxlPSJvdmVyZmxvdzp2aXNpYmxlIgogICAgICAgcmVmWD0iMCIKICAgICAgIHJlZlk9IjAiCiAgICAgICBvcmllbnQ9ImF1dG8tc3RhcnQtcmV2ZXJzZSIKICAgICAgIG1hcmtlcldpZHRoPSI2LjEzNDc1MjMiCiAgICAgICBtYXJrZXJIZWlnaHQ9IjUuOTMwNDk0OCIKICAgICAgIHZpZXdCb3g9IjAgMCA2LjEzNDc1MjQgNS45MzA0OTUxIgogICAgICAgcHJlc2VydmVBc3BlY3RSYXRpbz0ieE1pZFlNaWQiCiAgICAgICBpbmtzY2FwZTpzdG9ja2lkPSJtYXJrZXIyMjk4MjkxMTYxMzMzODEwMjczNTE1NDEyODk1NzMyMiIKICAgICAgIGlkPSJtYXJrZXIyMjk4MjkxMTYxMzMzODEwMjczNTE1NDEyODk1NzMyMiI+PHBhdGgKICAgICAgICAgdHJhbnNmb3JtPSJzY2FsZSgwLjcpIgogICAgICAgICBkPSJtIC0wLjIxMTE0NTYyLC00LjEwNTU3MjggNi40MjIyOTEyMiwzLjIxMTE0NTYxIGEgMSwxIDkwIDAgMSAwLDEuNzg4ODU0MzggTCAtMC4yMTExNDU2Miw0LjEwNTU3MjggQSAxLjIzNjA2OCwxLjIzNjA2OCAzMS43MTc0NzQgMCAxIC0yLDMgdiAtNiBhIDEuMjM2MDY4LDEuMjM2MDY4IDE0OC4yODI1MyAwIDEgMS43ODg4NTQzOCwtMS4xMDU1NzI4IHoiCiAgICAgICAgIHN0eWxlPSJmaWxsOiNmZjZmMDA7ZmlsbC1vcGFjaXR5OjAuNDc4NDMxO2ZpbGwtcnVsZTpldmVub2RkO3N0cm9rZTojZmY2ZjAwO3N0cm9rZS1vcGFjaXR5OjAuODg2Mjc1IgogICAgICAgICBpZD0icGF0aDE2NjQwIiAvPjwvbWFya2VyPjxtYXJrZXIKICAgICAgIHN0eWxlPSJvdmVyZmxvdzp2aXNpYmxlIgogICAgICAgcmVmWD0iMCIKICAgICAgIHJlZlk9IjAiCiAgICAgICBvcmllbnQ9ImF1dG8tc3RhcnQtcmV2ZXJzZSIKICAgICAgIG1hcmtlcldpZHRoPSI2LjEzNDc1MjMiCiAgICAgICBtYXJrZXJIZWlnaHQ9IjUuOTMwNDk0OCIKICAgICAgIHZpZXdCb3g9IjAgMCA2LjEzNDc1MjQgNS45MzA0OTUxIgogICAgICAgcHJlc2VydmVBc3BlY3RSYXRpbz0ieE1pZFlNaWQiCiAgICAgICBpbmtzY2FwZTpzdG9ja2lkPSJtYXJrZXIyMjk4MjkxMTYxMzMzODEwMjczNTE1NDEyODk1NzMyMjU2ODYiCiAgICAgICBpZD0ibWFya2VyMjI5ODI5MTE2MTMzMzgxMDI3MzUxNTQxMjg5NTczMjI1Njg2Ij48cGF0aAogICAgICAgICB0cmFuc2Zvcm09InNjYWxlKDAuNykiCiAgICAgICAgIGQ9Im0gLTAuMjExMTQ1NjIsLTQuMTA1NTcyOCA2LjQyMjI5MTIyLDMuMjExMTQ1NjEgYSAxLDEgOTAgMCAxIDAsMS43ODg4NTQzOCBMIC0wLjIxMTE0NTYyLDQuMTA1NTcyOCBBIDEuMjM2MDY4LDEuMjM2MDY4IDMxLjcxNzQ3NCAwIDEgLTIsMyB2IC02IGEgMS4yMzYwNjgsMS4yMzYwNjggMTQ4LjI4MjUzIDAgMSAxLjc4ODg1NDM4LC0xLjEwNTU3MjggeiIKICAgICAgICAgc3R5bGU9ImZpbGw6I2ZmNmYwMDtmaWxsLW9wYWNpdHk6MC4zNzY0NzE7ZmlsbC1ydWxlOmV2ZW5vZGQ7c3Ryb2tlOiNmZjZmMDA7c3Ryb2tlLW9wYWNpdHk6MC44ODYyNzUiCiAgICAgICAgIGlkPSJwYXRoMTg1MzkiIC8+PC9tYXJrZXI+PG1hcmtlcgogICAgICAgc3R5bGU9Im92ZXJmbG93OnZpc2libGUiCiAgICAgICByZWZYPSIwIgogICAgICAgcmVmWT0iMCIKICAgICAgIG9yaWVudD0iYXV0by1zdGFydC1yZXZlcnNlIgogICAgICAgbWFya2VyV2lkdGg9IjYuMTM0NzUyMyIKICAgICAgIG1hcmtlckhlaWdodD0iNS45MzA0OTQ4IgogICAgICAgdmlld0JveD0iMCAwIDYuMTM0NzUyNCA1LjkzMDQ5NTEiCiAgICAgICBwcmVzZXJ2ZUFzcGVjdFJhdGlvPSJ4TWlkWU1pZCIKICAgICAgIGlua3NjYXBlOnN0b2NraWQ9Im1hcmtlcjIyOTgyOTExNjEzMzM4MTAyNzM1MTU0MTI4OTU3MzIyNTY4NjUwOTMiCiAgICAgICBpZD0ibWFya2VyMjI5ODI5MTE2MTMzMzgxMDI3MzUxNTQxMjg5NTczMjI1Njg2NTA5MyI+PHBhdGgKICAgICAgICAgdHJhbnNmb3JtPSJzY2FsZSgwLjcpIgogICAgICAgICBkPSJtIC0wLjIxMTE0NTYyLC00LjEwNTU3MjggNi40MjIyOTEyMiwzLjIxMTE0NTYxIGEgMSwxIDkwIDAgMSAwLDEuNzg4ODU0MzggTCAtMC4yMTExNDU2Miw0LjEwNTU3MjggQSAxLjIzNjA2OCwxLjIzNjA2OCAzMS43MTc0NzQgMCAxIC0yLDMgdiAtNiBhIDEuMjM2MDY4LDEuMjM2MDY4IDE0OC4yODI1MyAwIDEgMS43ODg4NTQzOCwtMS4xMDU1NzI4IHoiCiAgICAgICAgIHN0eWxlPSJmaWxsOiNmZjZmMDA7ZmlsbC1vcGFjaXR5OjAuMzc2NDcxO2ZpbGwtcnVsZTpldmVub2RkO3N0cm9rZTojZmY2ZjAwO3N0cm9rZS1vcGFjaXR5OjAuODg2Mjc1IgogICAgICAgICBpZD0icGF0aDE4OTE3IiAvPjwvbWFya2VyPjxtYXJrZXIKICAgICAgIHN0eWxlPSJvdmVyZmxvdzp2aXNpYmxlIgogICAgICAgcmVmWD0iMCIKICAgICAgIHJlZlk9IjAiCiAgICAgICBvcmllbnQ9ImF1dG8tc3RhcnQtcmV2ZXJzZSIKICAgICAgIG1hcmtlcldpZHRoPSI2LjEzNDc1MjMiCiAgICAgICBtYXJrZXJIZWlnaHQ9IjUuOTMwNDk1MyIKICAgICAgIHZpZXdCb3g9IjAgMCA2LjEzNDc1MjQgNS45MzA0OTUxIgogICAgICAgcHJlc2VydmVBc3BlY3RSYXRpbz0ieE1pZFlNaWQiCiAgICAgICBpZD0ibWFya2VyMjI5ODItODUzNjMiCiAgICAgICBpbmtzY2FwZTpzdG9ja2lkPSJtYXJrZXIyMjk4Mi04NTM2MyI+PHBhdGgKICAgICAgICAgdHJhbnNmb3JtPSJzY2FsZSgwLjcpIgogICAgICAgICBkPSJtIC0wLjIxMTE0NTYyLC00LjEwNTU3MjggNi40MjIyOTEyMiwzLjIxMTE0NTYxIGEgMSwxIDkwIDAgMSAwLDEuNzg4ODU0MzggTCAtMC4yMTExNDU2Miw0LjEwNTU3MjggQSAxLjIzNjA2OCwxLjIzNjA2OCAzMS43MTc0NzQgMCAxIC0yLDMgdiAtNiBhIDEuMjM2MDY4LDEuMjM2MDY4IDE0OC4yODI1MyAwIDEgMS43ODg4NTQzOCwtMS4xMDU1NzI4IHoiCiAgICAgICAgIHN0eWxlPSJmaWxsOiNmZjZmMDA7ZmlsbC1ydWxlOmV2ZW5vZGQ7c3Ryb2tlOiNmZjZmMDAiCiAgICAgICAgIGlkPSJwYXRoMjAyNDciIC8+PC9tYXJrZXI+PG1hcmtlcgogICAgICAgc3R5bGU9Im92ZXJmbG93OnZpc2libGUiCiAgICAgICByZWZYPSIwIgogICAgICAgcmVmWT0iMCIKICAgICAgIG9yaWVudD0iYXV0by1zdGFydC1yZXZlcnNlIgogICAgICAgbWFya2VyV2lkdGg9IjYuMTM0NzUyMyIKICAgICAgIG1hcmtlckhlaWdodD0iNS45MzA0OTUzIgogICAgICAgdmlld0JveD0iMCAwIDYuMTM0NzUyNCA1LjkzMDQ5NTEiCiAgICAgICBwcmVzZXJ2ZUFzcGVjdFJhdGlvPSJ4TWlkWU1pZCIKICAgICAgIGlua3NjYXBlOnN0b2NraWQ9Im1hcmtlcjIyOTgyLTg1MzYzMzE1MyIKICAgICAgIGlkPSJtYXJrZXIyMjk4Mi04NTM2MzMxNTMiPjxwYXRoCiAgICAgICAgIHRyYW5zZm9ybT0ic2NhbGUoMC43KSIKICAgICAgICAgZD0ibSAtMC4yMTExNDU2MiwtNC4xMDU1NzI4IDYuNDIyMjkxMjIsMy4yMTExNDU2MSBhIDEsMSA5MCAwIDEgMCwxLjc4ODg1NDM4IEwgLTAuMjExMTQ1NjIsNC4xMDU1NzI4IEEgMS4yMzYwNjgsMS4yMzYwNjggMzEuNzE3NDc0IDAgMSAtMiwzIHYgLTYgYSAxLjIzNjA2OCwxLjIzNjA2OCAxNDguMjgyNTMgMCAxIDEuNzg4ODU0MzgsLTEuMTA1NTcyOCB6IgogICAgICAgICBzdHlsZT0iZmlsbDojZmY2ZjAwO2ZpbGwtcnVsZTpldmVub2RkO3N0cm9rZTojZmY2ZjAwIgogICAgICAgICBpZD0icGF0aDIwNjU3IiAvPjwvbWFya2VyPjxtYXJrZXIKICAgICAgIHN0eWxlPSJvdmVyZmxvdzp2aXNpYmxlIgogICAgICAgcmVmWD0iMCIKICAgICAgIHJlZlk9IjAiCiAgICAgICBvcmllbnQ9ImF1dG8tc3RhcnQtcmV2ZXJzZSIKICAgICAgIG1hcmtlcldpZHRoPSI2LjEzNDc1MjMiCiAgICAgICBtYXJrZXJIZWlnaHQ9IjUuOTMwNDk0OCIKICAgICAgIHZpZXdCb3g9IjAgMCA2LjEzNDc1MjQgNS45MzA0OTUxIgogICAgICAgcHJlc2VydmVBc3BlY3RSYXRpbz0ieE1pZFlNaWQiCiAgICAgICBpZD0ibWFya2VyMjI5ODI1OTczIgogICAgICAgaW5rc2NhcGU6c3RvY2tpZD0ibWFya2VyMjI5ODI1OTczIj48cGF0aAogICAgICAgICB0cmFuc2Zvcm09InNjYWxlKDAuNykiCiAgICAgICAgIGQ9Im0gLTAuMjExMTQ1NjIsLTQuMTA1NTcyOCA2LjQyMjI5MTIyLDMuMjExMTQ1NjEgYSAxLDEgOTAgMCAxIDAsMS43ODg4NTQzOCBMIC0wLjIxMTE0NTYyLDQuMTA1NTcyOCBBIDEuMjM2MDY4LDEuMjM2MDY4IDMxLjcxNzQ3NCAwIDEgLTIsMyB2IC02IGEgMS4yMzYwNjgsMS4yMzYwNjggMTQ4LjI4MjUzIDAgMSAxLjc4ODg1NDM4LC0xLjEwNTU3MjggeiIKICAgICAgICAgc3R5bGU9ImZpbGw6I2ZmNmYwMDtmaWxsLXJ1bGU6ZXZlbm9kZDtzdHJva2U6IzM5NmYwMCIKICAgICAgICAgaWQ9InBhdGgyMjA0MyIgLz48L21hcmtlcj48bWFya2VyCiAgICAgICBzdHlsZT0ib3ZlcmZsb3c6dmlzaWJsZSIKICAgICAgIHJlZlg9IjAiCiAgICAgICByZWZZPSIwIgogICAgICAgb3JpZW50PSJhdXRvLXN0YXJ0LXJldmVyc2UiCiAgICAgICBtYXJrZXJXaWR0aD0iNi4xMzQ3NTIzIgogICAgICAgbWFya2VySGVpZ2h0PSI1LjkzMDQ5NDgiCiAgICAgICB2aWV3Qm94PSIwIDAgNi4xMzQ3NTI0IDUuOTMwNDk1MSIKICAgICAgIHByZXNlcnZlQXNwZWN0UmF0aW89InhNaWRZTWlkIgogICAgICAgaW5rc2NhcGU6c3RvY2tpZD0ibWFya2VyMjI5ODI1OTczMzI2IgogICAgICAgaWQ9Im1hcmtlcjIyOTgyNTk3MzMyNiI+PHBhdGgKICAgICAgICAgdHJhbnNmb3JtPSJzY2FsZSgwLjcpIgogICAgICAgICBkPSJtIC0wLjIxMTE0NTYyLC00LjEwNTU3MjggNi40MjIyOTEyMiwzLjIxMTE0NTYxIGEgMSwxIDkwIDAgMSAwLDEuNzg4ODU0MzggTCAtMC4yMTExNDU2Miw0LjEwNTU3MjggQSAxLjIzNjA2OCwxLjIzNjA2OCAzMS43MTc0NzQgMCAxIC0yLDMgdiAtNiBhIDEuMjM2MDY4LDEuMjM2MDY4IDE0OC4yODI1MyAwIDEgMS43ODg4NTQzOCwtMS4xMDU1NzI4IHoiCiAgICAgICAgIHN0eWxlPSJmaWxsOiNmZjZmMDA7ZmlsbC1ydWxlOmV2ZW5vZGQ7c3Ryb2tlOiNmZjZmMDAiCiAgICAgICAgIGlkPSJwYXRoMjI0ODUiIC8+PC9tYXJrZXI+PG1hcmtlcgogICAgICAgc3R5bGU9Im92ZXJmbG93OnZpc2libGUiCiAgICAgICByZWZYPSIwIgogICAgICAgcmVmWT0iMCIKICAgICAgIG9yaWVudD0iYXV0by1zdGFydC1yZXZlcnNlIgogICAgICAgbWFya2VyV2lkdGg9IjYuMTM0NzUyMyIKICAgICAgIG1hcmtlckhlaWdodD0iNS45MzA0OTQ4IgogICAgICAgdmlld0JveD0iMCAwIDYuMTM0NzUyNCA1LjkzMDQ5NTEiCiAgICAgICBwcmVzZXJ2ZUFzcGVjdFJhdGlvPSJ4TWlkWU1pZCIKICAgICAgIGlua3NjYXBlOnN0b2NraWQ9Im1hcmtlcjIyOTgyNTk3MzMyNjE5MzkiCiAgICAgICBpZD0ibWFya2VyMjI5ODI1OTczMzI2MTkzOSI+PHBhdGgKICAgICAgICAgdHJhbnNmb3JtPSJzY2FsZSgwLjcpIgogICAgICAgICBkPSJtIC0wLjIxMTE0NTYyLC00LjEwNTU3MjggNi40MjIyOTEyMiwzLjIxMTE0NTYxIGEgMSwxIDkwIDAgMSAwLDEuNzg4ODU0MzggTCAtMC4yMTExNDU2Miw0LjEwNTU3MjggQSAxLjIzNjA2OCwxLjIzNjA2OCAzMS43MTc0NzQgMCAxIC0yLDMgdiAtNiBhIDEuMjM2MDY4LDEuMjM2MDY4IDE0OC4yODI1MyAwIDEgMS43ODg4NTQzOCwtMS4xMDU1NzI4IHoiCiAgICAgICAgIHN0eWxlPSJmaWxsOiMwMDZmMDA7ZmlsbC1ydWxlOmV2ZW5vZGQ7c3Ryb2tlOiNmZjZmMDAiCiAgICAgICAgIGlkPSJwYXRoMjI5NDMiIC8+PC9tYXJrZXI+PG1hcmtlcgogICAgICAgc3R5bGU9Im92ZXJmbG93OnZpc2libGUiCiAgICAgICByZWZYPSIwIgogICAgICAgcmVmWT0iMCIKICAgICAgIG9yaWVudD0iYXV0by1zdGFydC1yZXZlcnNlIgogICAgICAgbWFya2VyV2lkdGg9IjYuMTM0NzUyMyIKICAgICAgIG1hcmtlckhlaWdodD0iNS45MzA0OTQ4IgogICAgICAgdmlld0JveD0iMCAwIDYuMTM0NzUyNCA1LjkzMDQ5NTEiCiAgICAgICBwcmVzZXJ2ZUFzcGVjdFJhdGlvPSJ4TWlkWU1pZCIKICAgICAgIGlua3NjYXBlOnN0b2NraWQ9Im1hcmtlcjIyOTgyNTk3MzMyNjE5Mzk1NTE2IgogICAgICAgaWQ9Im1hcmtlcjIyOTgyNTk3MzMyNjE5Mzk1NTE2Ij48cGF0aAogICAgICAgICB0cmFuc2Zvcm09InNjYWxlKDAuNykiCiAgICAgICAgIGQ9Im0gLTAuMjExMTQ1NjIsLTQuMTA1NTcyOCA2LjQyMjI5MTIyLDMuMjExMTQ1NjEgYSAxLDEgOTAgMCAxIDAsMS43ODg4NTQzOCBMIC0wLjIxMTE0NTYyLDQuMTA1NTcyOCBBIDEuMjM2MDY4LDEuMjM2MDY4IDMxLjcxNzQ3NCAwIDEgLTIsMyB2IC02IGEgMS4yMzYwNjgsMS4yMzYwNjggMTQ4LjI4MjUzIDAgMSAxLjc4ODg1NDM4LC0xLjEwNTU3MjggeiIKICAgICAgICAgc3R5bGU9ImZpbGw6I2ZmNmYwMDtmaWxsLXJ1bGU6ZXZlbm9kZDtzdHJva2U6I2ZmNmYwMCIKICAgICAgICAgaWQ9InBhdGgyMzQxNyIgLz48L21hcmtlcj48bWFya2VyCiAgICAgICBzdHlsZT0ib3ZlcmZsb3c6dmlzaWJsZSIKICAgICAgIHJlZlg9IjAiCiAgICAgICByZWZZPSIwIgogICAgICAgb3JpZW50PSJhdXRvLXN0YXJ0LXJldmVyc2UiCiAgICAgICBtYXJrZXJXaWR0aD0iNi4xMzQ3NTIzIgogICAgICAgbWFya2VySGVpZ2h0PSI1LjkzMDQ5NDgiCiAgICAgICB2aWV3Qm94PSIwIDAgNi4xMzQ3NTI0IDUuOTMwNDk1MSIKICAgICAgIHByZXNlcnZlQXNwZWN0UmF0aW89InhNaWRZTWlkIgogICAgICAgaW5rc2NhcGU6c3RvY2tpZD0ibWFya2VyMjI5ODI5MTE2MTMzMzgxMDI3MzUxNTQxMjg5NTczMjI1Njg2NTA5Mzg0MjciCiAgICAgICBpZD0ibWFya2VyMjI5ODI5MTE2MTMzMzgxMDI3MzUxNTQxMjg5NTczMjI1Njg2NTA5Mzg0MjciPjxwYXRoCiAgICAgICAgIHRyYW5zZm9ybT0ic2NhbGUoMC43KSIKICAgICAgICAgZD0ibSAtMC4yMTExNDU2MiwtNC4xMDU1NzI4IDYuNDIyMjkxMjIsMy4yMTExNDU2MSBhIDEsMSA5MCAwIDEgMCwxLjc4ODg1NDM4IEwgLTAuMjExMTQ1NjIsNC4xMDU1NzI4IEEgMS4yMzYwNjgsMS4yMzYwNjggMzEuNzE3NDc0IDAgMSAtMiwzIHYgLTYgYSAxLjIzNjA2OCwxLjIzNjA2OCAxNDguMjgyNTMgMCAxIDEuNzg4ODU0MzgsLTEuMTA1NTcyOCB6IgogICAgICAgICBzdHlsZT0iZmlsbDojMzc2ZjIxO2ZpbGwtb3BhY2l0eTowLjM3NjQ3MTtmaWxsLXJ1bGU6ZXZlbm9kZDtzdHJva2U6I2ZmNmYwMDtzdHJva2Utb3BhY2l0eTowLjg4NjI3NSIKICAgICAgICAgaWQ9InBhdGgyNDkxNSIgLz48L21hcmtlcj48bWFya2VyCiAgICAgICBzdHlsZT0ib3ZlcmZsb3c6dmlzaWJsZSIKICAgICAgIHJlZlg9IjAiCiAgICAgICByZWZZPSIwIgogICAgICAgb3JpZW50PSJhdXRvLXN0YXJ0LXJldmVyc2UiCiAgICAgICBtYXJrZXJXaWR0aD0iNi4xMzQ3NTIzIgogICAgICAgbWFya2VySGVpZ2h0PSI1LjkzMDQ5NDgiCiAgICAgICB2aWV3Qm94PSIwIDAgNi4xMzQ3NTI0IDUuOTMwNDk1MSIKICAgICAgIHByZXNlcnZlQXNwZWN0UmF0aW89InhNaWRZTWlkIgogICAgICAgaW5rc2NhcGU6c3RvY2tpZD0ibWFya2VyMjI5ODI5MTE2MTMzMzgxMDI3MzUxNTQxMjg5NTczMjI1Njg2NTA5Mzg0Mjc2ODU2IgogICAgICAgaWQ9Im1hcmtlcjIyOTgyOTExNjEzMzM4MTAyNzM1MTU0MTI4OTU3MzIyNTY4NjUwOTM4NDI3Njg1NiI+PHBhdGgKICAgICAgICAgdHJhbnNmb3JtPSJzY2FsZSgwLjcpIgogICAgICAgICBkPSJtIC0wLjIxMTE0NTYyLC00LjEwNTU3MjggNi40MjIyOTEyMiwzLjIxMTE0NTYxIGEgMSwxIDkwIDAgMSAwLDEuNzg4ODU0MzggTCAtMC4yMTExNDU2Miw0LjEwNTU3MjggQSAxLjIzNjA2OCwxLjIzNjA2OCAzMS43MTc0NzQgMCAxIC0yLDMgdiAtNiBhIDEuMjM2MDY4LDEuMjM2MDY4IDE0OC4yODI1MyAwIDEgMS43ODg4NTQzOCwtMS4xMDU1NzI4IHoiCiAgICAgICAgIHN0eWxlPSJmaWxsOiNmZjZmMDA7ZmlsbC1vcGFjaXR5OjAuMzc2NDcxO2ZpbGwtcnVsZTpldmVub2RkO3N0cm9rZTojZmY2ZjAwO3N0cm9rZS1vcGFjaXR5OjAuODg2Mjc1IgogICAgICAgICBpZD0icGF0aDI1NDIxIiAvPjwvbWFya2VyPjxtYXJrZXIKICAgICAgIHN0eWxlPSJvdmVyZmxvdzp2aXNpYmxlIgogICAgICAgcmVmWD0iMCIKICAgICAgIHJlZlk9IjAiCiAgICAgICBvcmllbnQ9ImF1dG8tc3RhcnQtcmV2ZXJzZSIKICAgICAgIG1hcmtlcldpZHRoPSI2LjEzNDc1MjMiCiAgICAgICBtYXJrZXJIZWlnaHQ9IjUuOTMwNDk1MyIKICAgICAgIHZpZXdCb3g9IjAgMCA2LjEzNDc1MjQgNS45MzA0OTUxIgogICAgICAgcHJlc2VydmVBc3BlY3RSYXRpbz0ieE1pZFlNaWQiCiAgICAgICBpbmtzY2FwZTpzdG9ja2lkPSJtYXJrZXIyMjk4Mi04NTM2MzMxNTMiCiAgICAgICBpZD0ibWFya2VyMjI5ODItODUzNjMzMTUzLTYiPjxwYXRoCiAgICAgICAgIHRyYW5zZm9ybT0ic2NhbGUoMC43KSIKICAgICAgICAgZD0ibSAtMC4yMTExNDU2MiwtNC4xMDU1NzI4IDYuNDIyMjkxMjIsMy4yMTExNDU2MSBhIDEsMSA5MCAwIDEgMCwxLjc4ODg1NDM4IEwgLTAuMjExMTQ1NjIsNC4xMDU1NzI4IEEgMS4yMzYwNjgsMS4yMzYwNjggMzEuNzE3NDc0IDAgMSAtMiwzIHYgLTYgYSAxLjIzNjA2OCwxLjIzNjA2OCAxNDguMjgyNTMgMCAxIDEuNzg4ODU0MzgsLTEuMTA1NTcyOCB6IgogICAgICAgICBzdHlsZT0iZmlsbDojZmY2ZjAwO2ZpbGwtcnVsZTpldmVub2RkO3N0cm9rZTojZmY2ZjAwIgogICAgICAgICBpZD0icGF0aDIwNjU3LTYiIC8+PC9tYXJrZXI+PG1hcmtlcgogICAgICAgc3R5bGU9Im92ZXJmbG93OnZpc2libGUiCiAgICAgICByZWZYPSIwIgogICAgICAgcmVmWT0iMCIKICAgICAgIG9yaWVudD0iYXV0by1zdGFydC1yZXZlcnNlIgogICAgICAgbWFya2VyV2lkdGg9IjYuMTM0NzUyMyIKICAgICAgIG1hcmtlckhlaWdodD0iNS45MzA0OTQ4IgogICAgICAgdmlld0JveD0iMCAwIDYuMTM0NzUyNCA1LjkzMDQ5NTEiCiAgICAgICBwcmVzZXJ2ZUFzcGVjdFJhdGlvPSJ4TWlkWU1pZCIKICAgICAgIGlkPSJSb3VuZGVkQXJyb3c0ODA4IgogICAgICAgaW5rc2NhcGU6c3RvY2tpZD0iUm91bmRlZEFycm93NDgwOCI+PHBhdGgKICAgICAgICAgdHJhbnNmb3JtPSJzY2FsZSgwLjcpIgogICAgICAgICBkPSJtIC0wLjIxMTE0NTYyLC00LjEwNTU3MjggNi40MjIyOTEyMiwzLjIxMTE0NTYxIGEgMSwxIDkwIDAgMSAwLDEuNzg4ODU0MzggTCAtMC4yMTExNDU2Miw0LjEwNTU3MjggQSAxLjIzNjA2OCwxLjIzNjA2OCAzMS43MTc0NzQgMCAxIC0yLDMgdiAtNiBhIDEuMjM2MDY4LDEuMjM2MDY4IDE0OC4yODI1MyAwIDEgMS43ODg4NTQzOCwtMS4xMDU1NzI4IHoiCiAgICAgICAgIHN0eWxlPSJmaWxsOiMwMDAwZmY7ZmlsbC1ydWxlOmV2ZW5vZGQ7c3Ryb2tlOiNmZjZmMDAiCiAgICAgICAgIGlkPSJwYXRoMjg5MTQiIC8+PC9tYXJrZXI+PG1hcmtlcgogICAgICAgc3R5bGU9Im92ZXJmbG93OnZpc2libGUiCiAgICAgICByZWZYPSIwIgogICAgICAgcmVmWT0iMCIKICAgICAgIG9yaWVudD0iYXV0by1zdGFydC1yZXZlcnNlIgogICAgICAgbWFya2VyV2lkdGg9IjYuMTM0NzUyMyIKICAgICAgIG1hcmtlckhlaWdodD0iNS45MzA0OTQ4IgogICAgICAgdmlld0JveD0iMCAwIDYuMTM0NzUyNCA1LjkzMDQ5NTEiCiAgICAgICBwcmVzZXJ2ZUFzcGVjdFJhdGlvPSJ4TWlkWU1pZCIKICAgICAgIGlua3NjYXBlOnN0b2NraWQ9IlJvdW5kZWRBcnJvdzQ4MDg5NDIwIgogICAgICAgaWQ9IlJvdW5kZWRBcnJvdzQ4MDg5NDIwIj48cGF0aAogICAgICAgICB0cmFuc2Zvcm09InNjYWxlKDAuNykiCiAgICAgICAgIGQ9Im0gLTAuMjExMTQ1NjIsLTQuMTA1NTcyOCA2LjQyMjI5MTIyLDMuMjExMTQ1NjEgYSAxLDEgOTAgMCAxIDAsMS43ODg4NTQzOCBMIC0wLjIxMTE0NTYyLDQuMTA1NTcyOCBBIDEuMjM2MDY4LDEuMjM2MDY4IDMxLjcxNzQ3NCAwIDEgLTIsMyB2IC02IGEgMS4yMzYwNjgsMS4yMzYwNjggMTQ4LjI4MjUzIDAgMSAxLjc4ODg1NDM4LC0xLjEwNTU3MjggeiIKICAgICAgICAgc3R5bGU9ImZpbGw6IzAwMDBmZjtmaWxsLXJ1bGU6ZXZlbm9kZDtzdHJva2U6IzAwMDBmZiIKICAgICAgICAgaWQ9InBhdGgyOTQ2NiIgLz48L21hcmtlcj48bWFya2VyCiAgICAgICBzdHlsZT0ib3ZlcmZsb3c6dmlzaWJsZSIKICAgICAgIHJlZlg9IjAiCiAgICAgICByZWZZPSIwIgogICAgICAgb3JpZW50PSJhdXRvLXN0YXJ0LXJldmVyc2UiCiAgICAgICBtYXJrZXJXaWR0aD0iNi4xMzQ3NTIzIgogICAgICAgbWFya2VySGVpZ2h0PSI1LjkzMDQ5NDgiCiAgICAgICB2aWV3Qm94PSIwIDAgNi4xMzQ3NTI0IDUuOTMwNDk1MSIKICAgICAgIHByZXNlcnZlQXNwZWN0UmF0aW89InhNaWRZTWlkIgogICAgICAgaWQ9IlJvdW5kZWRBcnJvdzgxIgogICAgICAgaW5rc2NhcGU6c3RvY2tpZD0iUm91bmRlZEFycm93ODEiPjxwYXRoCiAgICAgICAgIHRyYW5zZm9ybT0ic2NhbGUoMC43KSIKICAgICAgICAgZD0ibSAtMC4yMTExNDU2MiwtNC4xMDU1NzI4IDYuNDIyMjkxMjIsMy4yMTExNDU2MSBhIDEsMSA5MCAwIDEgMCwxLjc4ODg1NDM4IEwgLTAuMjExMTQ1NjIsNC4xMDU1NzI4IEEgMS4yMzYwNjgsMS4yMzYwNjggMzEuNzE3NDc0IDAgMSAtMiwzIHYgLTYgYSAxLjIzNjA2OCwxLjIzNjA2OCAxNDguMjgyNTMgMCAxIDEuNzg4ODU0MzgsLTEuMTA1NTcyOCB6IgogICAgICAgICBzdHlsZT0iZmlsbDojMDAwMGZmO2ZpbGwtcnVsZTpldmVub2RkO3N0cm9rZTojZmYwMDAwIgogICAgICAgICBpZD0icGF0aDMxMTI1IiAvPjwvbWFya2VyPjxtYXJrZXIKICAgICAgIHN0eWxlPSJvdmVyZmxvdzp2aXNpYmxlIgogICAgICAgcmVmWD0iMCIKICAgICAgIHJlZlk9IjAiCiAgICAgICBvcmllbnQ9ImF1dG8tc3RhcnQtcmV2ZXJzZSIKICAgICAgIG1hcmtlcldpZHRoPSI2LjEzNDc1MjMiCiAgICAgICBtYXJrZXJIZWlnaHQ9IjUuOTMwNDk0OCIKICAgICAgIHZpZXdCb3g9IjAgMCA2LjEzNDc1MjQgNS45MzA0OTUxIgogICAgICAgcHJlc2VydmVBc3BlY3RSYXRpbz0ieE1pZFlNaWQiCiAgICAgICBpbmtzY2FwZTpzdG9ja2lkPSJSb3VuZGVkQXJyb3c4MTE3MSIKICAgICAgIGlkPSJSb3VuZGVkQXJyb3c4MTE3MSI+PHBhdGgKICAgICAgICAgdHJhbnNmb3JtPSJzY2FsZSgwLjcpIgogICAgICAgICBkPSJtIC0wLjIxMTE0NTYyLC00LjEwNTU3MjggNi40MjIyOTEyMiwzLjIxMTE0NTYxIGEgMSwxIDkwIDAgMSAwLDEuNzg4ODU0MzggTCAtMC4yMTExNDU2Miw0LjEwNTU3MjggQSAxLjIzNjA2OCwxLjIzNjA2OCAzMS43MTc0NzQgMCAxIC0yLDMgdiAtNiBhIDEuMjM2MDY4LDEuMjM2MDY4IDE0OC4yODI1MyAwIDEgMS43ODg4NTQzOCwtMS4xMDU1NzI4IHoiCiAgICAgICAgIHN0eWxlPSJmaWxsOiNmZjAwMDA7ZmlsbC1ydWxlOmV2ZW5vZGQ7c3Ryb2tlOiNmZjAwMDAiCiAgICAgICAgIGlkPSJwYXRoMzE3MDkiIC8+PC9tYXJrZXI+PG1hcmtlcgogICAgICAgc3R5bGU9Im92ZXJmbG93OnZpc2libGUiCiAgICAgICByZWZYPSIwIgogICAgICAgcmVmWT0iMCIKICAgICAgIG9yaWVudD0iYXV0by1zdGFydC1yZXZlcnNlIgogICAgICAgbWFya2VyV2lkdGg9IjYuMTM0NzUyMyIKICAgICAgIG1hcmtlckhlaWdodD0iNS45MzA0OTQ4IgogICAgICAgdmlld0JveD0iMCAwIDYuMTM0NzUyNCA1LjkzMDQ5NTEiCiAgICAgICBwcmVzZXJ2ZUFzcGVjdFJhdGlvPSJ4TWlkWU1pZCIKICAgICAgIGlkPSJSb3VuZGVkQXJyb3ctOTY5NzAiCiAgICAgICBpbmtzY2FwZTpzdG9ja2lkPSJSb3VuZGVkQXJyb3ctOTY5NzAiPjxwYXRoCiAgICAgICAgIHRyYW5zZm9ybT0ic2NhbGUoMC43KSIKICAgICAgICAgZD0ibSAtMC4yMTExNDU2MiwtNC4xMDU1NzI4IDYuNDIyMjkxMjIsMy4yMTExNDU2MSBhIDEsMSA5MCAwIDEgMCwxLjc4ODg1NDM4IEwgLTAuMjExMTQ1NjIsNC4xMDU1NzI4IEEgMS4yMzYwNjgsMS4yMzYwNjggMzEuNzE3NDc0IDAgMSAtMiwzIHYgLTYgYSAxLjIzNjA2OCwxLjIzNjA2OCAxNDguMjgyNTMgMCAxIDEuNzg4ODU0MzgsLTEuMTA1NTcyOCB6IgogICAgICAgICBzdHlsZT0iZmlsbDojMDAwMGZmO2ZpbGwtcnVsZTpldmVub2RkO3N0cm9rZTojMDAwMGZmIgogICAgICAgICBpZD0icGF0aDM0NjA1IiAvPjwvbWFya2VyPjxtYXJrZXIKICAgICAgIHN0eWxlPSJvdmVyZmxvdzp2aXNpYmxlIgogICAgICAgcmVmWD0iMCIKICAgICAgIHJlZlk9IjAiCiAgICAgICBvcmllbnQ9ImF1dG8tc3RhcnQtcmV2ZXJzZSIKICAgICAgIGlua3NjYXBlOnN0b2NraWQ9Im1hcmtlcjQxMzA4ODcyMSIKICAgICAgIG1hcmtlcldpZHRoPSI2LjEzNDc1MjMiCiAgICAgICBtYXJrZXJIZWlnaHQ9IjUuOTMwNDk1MyIKICAgICAgIHZpZXdCb3g9IjAgMCA2LjEzNDc1MjQgNS45MzA0OTUxIgogICAgICAgaW5rc2NhcGU6aXNzdG9jaz0idHJ1ZSIKICAgICAgIGlua3NjYXBlOmNvbGxlY3Q9ImFsd2F5cyIKICAgICAgIHByZXNlcnZlQXNwZWN0UmF0aW89InhNaWRZTWlkIgogICAgICAgaWQ9Im1hcmtlcjQxMzA4ODcyMSI+PHBhdGgKICAgICAgICAgdHJhbnNmb3JtPSJzY2FsZSgwLjcpIgogICAgICAgICBkPSJtIC0wLjIxMTE0NTYyLC00LjEwNTU3MjggNi40MjIyOTEyMiwzLjIxMTE0NTYxIGEgMSwxIDkwIDAgMSAwLDEuNzg4ODU0MzggTCAtMC4yMTExNDU2Miw0LjEwNTU3MjggQSAxLjIzNjA2OCwxLjIzNjA2OCAzMS43MTc0NzQgMCAxIC0yLDMgdiAtNiBhIDEuMjM2MDY4LDEuMjM2MDY4IDE0OC4yODI1MyAwIDEgMS43ODg4NTQzOCwtMS4xMDU1NzI4IHoiCiAgICAgICAgIHN0eWxlPSJmaWxsOiNkNmI2NTY7ZmlsbC1ydWxlOmV2ZW5vZGQ7c3Ryb2tlOiNkNmI2NTYiCiAgICAgICAgIGlkPSJwYXRoNDU0NDAiIC8+PC9tYXJrZXI+PG1hcmtlcgogICAgICAgc3R5bGU9Im92ZXJmbG93OnZpc2libGUiCiAgICAgICByZWZYPSIwIgogICAgICAgcmVmWT0iMCIKICAgICAgIG9yaWVudD0iYXV0by1zdGFydC1yZXZlcnNlIgogICAgICAgaW5rc2NhcGU6c3RvY2tpZD0ibWFya2VyNDEzMDgxMjUwIgogICAgICAgbWFya2VyV2lkdGg9IjYuMTM0NzUyMyIKICAgICAgIG1hcmtlckhlaWdodD0iNS45MzA0OTUzIgogICAgICAgdmlld0JveD0iMCAwIDYuMTM0NzUyNCA1LjkzMDQ5NTEiCiAgICAgICBpbmtzY2FwZTppc3N0b2NrPSJ0cnVlIgogICAgICAgaW5rc2NhcGU6Y29sbGVjdD0iYWx3YXlzIgogICAgICAgcHJlc2VydmVBc3BlY3RSYXRpbz0ieE1pZFlNaWQiCiAgICAgICBpZD0ibWFya2VyNDEzMDgxMjUwIj48cGF0aAogICAgICAgICB0cmFuc2Zvcm09InNjYWxlKDAuNykiCiAgICAgICAgIGQ9Im0gLTAuMjExMTQ1NjIsLTQuMTA1NTcyOCA2LjQyMjI5MTIyLDMuMjExMTQ1NjEgYSAxLDEgOTAgMCAxIDAsMS43ODg4NTQzOCBMIC0wLjIxMTE0NTYyLDQuMTA1NTcyOCBBIDEuMjM2MDY4LDEuMjM2MDY4IDMxLjcxNzQ3NCAwIDEgLTIsMyB2IC02IGEgMS4yMzYwNjgsMS4yMzYwNjggMTQ4LjI4MjUzIDAgMSAxLjc4ODg1NDM4LC0xLjEwNTU3MjggeiIKICAgICAgICAgc3R5bGU9ImZpbGw6I2Q2YjY1NjtmaWxsLXJ1bGU6ZXZlbm9kZDtzdHJva2U6I2Q2YjY1NiIKICAgICAgICAgaWQ9InBhdGg0NTQ0MyIgLz48L21hcmtlcj48bWFya2VyCiAgICAgICBzdHlsZT0ib3ZlcmZsb3c6dmlzaWJsZSIKICAgICAgIHJlZlg9IjAiCiAgICAgICByZWZZPSIwIgogICAgICAgb3JpZW50PSJhdXRvLXN0YXJ0LXJldmVyc2UiCiAgICAgICBpbmtzY2FwZTpzdG9ja2lkPSJtYXJrZXI0MTMwODMzODQiCiAgICAgICBtYXJrZXJXaWR0aD0iNi4xMzQ3NTIzIgogICAgICAgbWFya2VySGVpZ2h0PSI1LjkzMDQ5NTMiCiAgICAgICB2aWV3Qm94PSIwIDAgNi4xMzQ3NTI0IDUuOTMwNDk1MSIKICAgICAgIGlua3NjYXBlOmlzc3RvY2s9InRydWUiCiAgICAgICBpbmtzY2FwZTpjb2xsZWN0PSJhbHdheXMiCiAgICAgICBwcmVzZXJ2ZUFzcGVjdFJhdGlvPSJ4TWlkWU1pZCIKICAgICAgIGlkPSJtYXJrZXI0MTMwODMzODQiPjxwYXRoCiAgICAgICAgIHRyYW5zZm9ybT0ic2NhbGUoMC43KSIKICAgICAgICAgZD0ibSAtMC4yMTExNDU2MiwtNC4xMDU1NzI4IDYuNDIyMjkxMjIsMy4yMTExNDU2MSBhIDEsMSA5MCAwIDEgMCwxLjc4ODg1NDM4IEwgLTAuMjExMTQ1NjIsNC4xMDU1NzI4IEEgMS4yMzYwNjgsMS4yMzYwNjggMzEuNzE3NDc0IDAgMSAtMiwzIHYgLTYgYSAxLjIzNjA2OCwxLjIzNjA2OCAxNDguMjgyNTMgMCAxIDEuNzg4ODU0MzgsLTEuMTA1NTcyOCB6IgogICAgICAgICBzdHlsZT0iZmlsbDojZDZiNjU2O2ZpbGwtcnVsZTpldmVub2RkO3N0cm9rZTojZDZiNjU2IgogICAgICAgICBpZD0icGF0aDQ1NDQ2IiAvPjwvbWFya2VyPjwvZGVmcz48ZwogICAgIGlkPSJnODEyMiIKICAgICB0cmFuc2Zvcm09Im1hdHJpeCgwLjYwMjYxOTU4LDAsMCwwLjYwMjYxOTU4LDAuMjM2MTEzNDIsLTguMzcwNzYzOSkiPjxwYXRoCiAgICAgICBzdHlsZT0iZmlsbDp1cmwoI3BhdHRlcm40Mzg5KTtmaWxsLW9wYWNpdHk6MTtzdHJva2U6IzAwMDAwMDtzdHJva2Utd2lkdGg6MC4yNjQ1ODNweDtzdHJva2UtbGluZWNhcDpidXR0O3N0cm9rZS1saW5lam9pbjptaXRlcjtzdHJva2Utb3BhY2l0eToxIgogICAgICAgZD0ibSAzNC4zOTU4MzgsNjYuMTQ1ODQzIDUuMjkxNjcsMi42NDU4MyBoIDkuMjYwNDIgbCA1LjI5MTY2LC03LjkzNzUgdiAtMjkuMTA0MTYgbCAtNS4yOTE2NywtNy45Mzc1MDcgLTkuMjYwNDEsNGUtNiAtNS4yOTE2NywyLjY0NTgzIHoiCiAgICAgICBpZD0icGF0aDE4NTIiIC8+PHBhdGgKICAgICAgIHN0eWxlPSJmaWxsOnVybCgjcGF0dGVybjQ0MTEpO2ZpbGwtb3BhY2l0eToxO3N0cm9rZTojMDAwMDAwO3N0cm9rZS13aWR0aDowLjI2NDU4M3B4O3N0cm9rZS1saW5lY2FwOmJ1dHQ7c3Ryb2tlLWxpbmVqb2luOm1pdGVyO3N0cm9rZS1vcGFjaXR5OjEiCiAgICAgICBkPSJtIDY4Ljc5MTY2OCwzMy4wNzI5MjMgaCA1NC4yMzk1OTIgdiAxLjMyMjkyIEggNjguNzkxNjY4IFoiCiAgICAgICBpZD0icGF0aDE4NTYiIC8+PHBhdGgKICAgICAgIHN0eWxlPSJmaWxsOnVybCgjcGF0dGVybjQ0MjcpO2ZpbGwtb3BhY2l0eToxO3N0cm9rZTojMDAwMDAwO3N0cm9rZS13aWR0aDowLjI2NDU4M3B4O3N0cm9rZS1saW5lY2FwOmJ1dHQ7c3Ryb2tlLWxpbmVqb2luOm1pdGVyO3N0cm9rZS1vcGFjaXR5OjEiCiAgICAgICBkPSJtIDY4Ljc5MTY1OCwzOS42ODc1MTMgaCA1NC4yMzk1OTIgdiAtNS4yOTE2NyBIIDg4LjYzNTQxOCB2IDIuNjQ1ODMgaCAtMTkuODQzNzUgeiIKICAgICAgIGlkPSJwYXRoMTg1OCIgLz48cGF0aAogICAgICAgc3R5bGU9ImZpbGw6dXJsKCNwYXR0ZXJuNDQxMyk7ZmlsbC1vcGFjaXR5OjE7c3Ryb2tlOiMwMDAwMDA7c3Ryb2tlLXdpZHRoOjAuMjY0NTgzcHg7c3Ryb2tlLWxpbmVjYXA6YnV0dDtzdHJva2UtbGluZWpvaW46bWl0ZXI7c3Ryb2tlLW9wYWNpdHk6MSIKICAgICAgIGQ9Im0gNjguNzkxNjY4LDU5LjUzMTI1MyBoIDU0LjIzOTU5MiB2IC0xLjMyMjkyIEggNjguNzkxNjY4IFoiCiAgICAgICBpZD0icGF0aDE4NTYtNSIgLz48cGF0aAogICAgICAgc3R5bGU9ImZpbGw6dXJsKCNwYXR0ZXJuNDQyOSk7ZmlsbC1vcGFjaXR5OjE7c3Ryb2tlOiMwMDAwMDA7c3Ryb2tlLXdpZHRoOjAuMjY0NTgzcHg7c3Ryb2tlLWxpbmVjYXA6YnV0dDtzdHJva2UtbGluZWpvaW46bWl0ZXI7c3Ryb2tlLW9wYWNpdHk6MSIKICAgICAgIGQ9Im0gNjguNzkxNjU4LDUyLjkxNjY2MyBoIDU0LjIzOTU5MiB2IDUuMjkxNjcgSCA4OC42MzU0MTggdiAtMi42NDU4MyBoIC0xOS44NDM3NSB6IgogICAgICAgaWQ9InBhdGgxODU4LTgiIC8+PHBhdGgKICAgICAgIHN0eWxlPSJmaWxsOm5vbmU7c3Ryb2tlOiMwMDAwMDA7c3Ryb2tlLXdpZHRoOjAuMjY0NTgzcHg7c3Ryb2tlLWxpbmVjYXA6YnV0dDtzdHJva2UtbGluZWpvaW46bWl0ZXI7c3Ryb2tlLW9wYWNpdHk6MSIKICAgICAgIGQ9Im0gNjguNzkxNjY4LDUyLjkxNjY3MyB2IC0xMy4yMjkxNyBoIDU0LjIzOTU5MiB2IDEzLjIyOTE3IHoiCiAgICAgICBpZD0icGF0aDE4OTIiIC8+PHBhdGgKICAgICAgIHN0eWxlPSJmaWxsOnVybCgjcGF0dGVybjUxNjkpO2ZpbGwtb3BhY2l0eToxO3N0cm9rZTojMDAwMDAwO3N0cm9rZS13aWR0aDowLjI2NDU4M3B4O3N0cm9rZS1saW5lY2FwOmJ1dHQ7c3Ryb2tlLWxpbmVqb2luOm1pdGVyO3N0cm9rZS1vcGFjaXR5OjEiCiAgICAgICBkPSJtIDY4Ljc5MTY2NiwyMS4xNjY2NjYgdiA3LjkzNzUgbCA1NC4yMzk1ODQsMWUtNiB2IC03LjkzNzUgeiIKICAgICAgIGlkPSJwYXRoNDQzMSIgLz48cGF0aAogICAgICAgc3R5bGU9ImZpbGw6dXJsKCNwYXR0ZXJuNTE2OS0xKTtmaWxsLW9wYWNpdHk6MTtzdHJva2U6IzAwMDAwMDtzdHJva2Utd2lkdGg6MC4yNjQ1ODNweDtzdHJva2UtbGluZWNhcDpidXR0O3N0cm9rZS1saW5lam9pbjptaXRlcjtzdHJva2Utb3BhY2l0eToxIgogICAgICAgZD0ibSA2OC43OTE2NjcsNjMuNSB2IDcuOTM3NSBsIDU0LjIzOTU4MywyZS02IHYgLTcuOTM3NSB6IgogICAgICAgaWQ9InBhdGg0NDMxLTAiIC8+PHBhdGgKICAgICAgIHN0eWxlPSJmaWxsOnVybCgjcGF0dGVybjQ0MjEpO2ZpbGwtb3BhY2l0eToxO3N0cm9rZTojMDAwMDAwO3N0cm9rZS13aWR0aDowLjI2NDU4M3B4O3N0cm9rZS1saW5lY2FwOmJ1dHQ7c3Ryb2tlLWxpbmVqb2luOm1pdGVyO3N0cm9rZS1vcGFjaXR5OjEiCiAgICAgICBkPSJtIDM5LjY4NzUwOCwyMS4xNjY2NzEgaCA5LjI2MDQxIGwgMTkuODQzNzUsMTMuMjI5MTcyIGggMTkuODQzNzYgdiAyLjY0NTgzIEggNjguNzkxNjc4IEwgNDguOTQ3OTI4LDIzLjgxMjUxMSBoIC05LjI2MDQyIHoiCiAgICAgICBpZD0icGF0aDE4NTQiIC8+PHBhdGgKICAgICAgIHN0eWxlPSJmaWxsOnVybCgjcGF0dGVybjQ0MTkpO2ZpbGwtb3BhY2l0eToxO3N0cm9rZTojMDAwMDAwO3N0cm9rZS13aWR0aDowLjI2NDU4M3B4O3N0cm9rZS1saW5lY2FwOmJ1dHQ7c3Ryb2tlLWxpbmVqb2luOm1pdGVyO3N0cm9rZS1vcGFjaXR5OjEiCiAgICAgICBkPSJtIDM5LjY4NzUwOCw3MS40Mzc1MTMgaCA5LjI2MDQxIGwgMTkuODQzNzUsLTEzLjIyOTE3IDE5Ljg0Mzc2LC0xMGUtNiB2IC0yLjY0NTgzIGggLTE5Ljg0Mzc1IGwgLTE5Ljg0Mzc1LDEzLjIyOTE3IGggLTkuMjYwNDIgeiIKICAgICAgIGlkPSJwYXRoMTg1NC04IiAvPjxwYXRoCiAgICAgICBzdHlsZT0iZmlsbDpub25lO3N0cm9rZTojMDAwMDAwO3N0cm9rZS13aWR0aDowLjI2NDU4M3B4O3N0cm9rZS1saW5lY2FwOmJ1dHQ7c3Ryb2tlLWxpbmVqb2luOm1pdGVyO3N0cm9rZS1vcGFjaXR5OjEiCiAgICAgICBkPSJtIDY4Ljc5MTY3NiwyOS4xMDQxNzEgdiAzLjk2ODc1IgogICAgICAgaWQ9InBhdGgxNzQyNCIgLz48cGF0aAogICAgICAgc3R5bGU9ImZpbGw6bm9uZTtzdHJva2U6IzAwMDAwMDtzdHJva2Utd2lkdGg6MC4yNjQ1ODNweDtzdHJva2UtbGluZWNhcDpidXR0O3N0cm9rZS1saW5lam9pbjptaXRlcjtzdHJva2Utb3BhY2l0eToxIgogICAgICAgZD0ibSAxMjMuMDMxMjYsMjkuMTA0MTcxIHYgMy45Njg3NSIKICAgICAgIGlkPSJwYXRoMTc0MjYiIC8+PHBhdGgKICAgICAgIHN0eWxlPSJmaWxsOm5vbmU7c3Ryb2tlOiMwMDAwMDA7c3Ryb2tlLXdpZHRoOjAuMjY0NTgzcHg7c3Ryb2tlLWxpbmVjYXA6YnV0dDtzdHJva2UtbGluZWpvaW46bWl0ZXI7c3Ryb2tlLW9wYWNpdHk6MSIKICAgICAgIGQ9Im0gMTIzLjAzMTI2LDYzLjUwMDAwNCB2IC0zLjk2ODc1IgogICAgICAgaWQ9InBhdGgxNzQyOCIgLz48cGF0aAogICAgICAgc3R5bGU9ImZpbGw6bm9uZTtzdHJva2U6IzAwMDAwMDtzdHJva2Utd2lkdGg6MC4yNjQ1ODNweDtzdHJva2UtbGluZWNhcDpidXR0O3N0cm9rZS1saW5lam9pbjptaXRlcjtzdHJva2Utb3BhY2l0eToxIgogICAgICAgZD0ibSA2OC43OTE2NzYsNjMuNTAwMDA0IHYgLTMuOTY4NzUiCiAgICAgICBpZD0icGF0aDE3NDMwIiAvPjwvZz48cGF0aAogICAgIHN0eWxlPSJmaWxsOm5vbmU7c3Ryb2tlOiMwMDAwZmY7c3Ryb2tlLXdpZHRoOjAuMzAxMzE7c3Ryb2tlLWxpbmVjYXA6YnV0dDtzdHJva2UtbGluZWpvaW46bWl0ZXI7c3Ryb2tlLWRhc2hhcnJheTpub25lO3N0cm9rZS1vcGFjaXR5OjE7bWFya2VyLWVuZDp1cmwoI1JvdW5kZWRBcnJvdzQ4MDg5NDIwKSIKICAgICBkPSJNIDc0LjM3NzE1OSwxMC40NDM1MjMgSCA0MS42OTEzMjQgQyAzOC41MDI0NjIsMTAuNDQzNTI0IDI2LjU0NDIzLC0zLjkwNjM1NDkgMTcuNzc0ODU5LDMuMjY4NTg0MSAxNC41ODU5OTgsNi40NTc0NDYxIDE0LjU2MzYyLDExLjQ3OTkwMiAxNi45Nzc2NDQsMTMuOTUxMjcyIgogICAgIGlkPSJwYXRoODkzMiIgLz48cGF0aAogICAgIHN0eWxlPSJmaWxsOm5vbmU7c3Ryb2tlOiMwMDAwZmY7c3Ryb2tlLXdpZHRoOjAuMzAxMzE7c3Ryb2tlLWxpbmVjYXA6YnV0dDtzdHJva2UtbGluZWpvaW46bWl0ZXI7c3Ryb2tlLWRhc2hhcnJheTpub25lO3N0cm9rZS1vcGFjaXR5OjE7bWFya2VyLWVuZDp1cmwoI1JvdW5kZWRBcnJvdy05Njk3MCkiCiAgICAgZD0iTSA3NC4zNzcxNTksMjguNjk5NzU2IEggNDEuNjkxMzI0IGMgLTMuMTg4ODYxLDAgLTE1LjE0NzA5MywxNC4zNDk4OCAtMjMuOTE2NDY0LDcuMTc0OTQgLTMuMTg4ODYyLC0zLjE4ODg2MiAtMy4yMTEyMzksLTguMjExMzE4IC0wLjc5NzIxNSwtMTAuNjgyNjg4IgogICAgIGlkPSJwYXRoODkzMi05IiAvPjxwYXRoCiAgICAgc3R5bGU9ImZpbGw6bm9uZTtmaWxsLXJ1bGU6ZXZlbm9kZDtzdHJva2U6IzAwMDBmZjtzdHJva2Utd2lkdGg6MC43ODc5MDI7c3Ryb2tlLWRhc2hhcnJheTpub25lIgogICAgIGlkPSJwYXRoOTQyNyIKICAgICBkPSJtIDIzLjgxMjUsNDcuNjI1IGMgLTAuMjE1NTMzLC0xLjA0Nzc0NSAxLjMwNjAwMiwtMC44MDc0NTQgMS43NDE0MiwtMC4zNTgyMyAxLjE3OTk1NiwxLjIxNzM3IDAuMjM1OTA1LDMuMTM0MDU1IC0xLjAyNDk2LDMuODQxMDcxIC0yLjI1NTM5MiwxLjI2NDY4NSAtNC45Nzg5NjcsLTAuMjA3MzEyIC01Ljk0MDcyMSwtMi40MDgxNTEgLTEuNDExNDEyLC0zLjIyOTgyIDAuNjQ3ODg2LC02Ljg1NDYwOCAzLjc5MTM0MSwtOC4wNDAzNzEgNC4xODk3MzEsLTEuNTgwNDM1IDguNzQxOTA2LDEuMDg2Mzg3IDEwLjE0MDAyMSw1LjE3NDUzMSAxLjc1OTM4Nyw1LjE0NDUxMiAtMS41MjM2MjQsMTAuNjM0OTQgLTYuNTU3NzIxLDEyLjIzOTY3MiAtMS45NzQ5MTUsMC42Mjk1NDggLTQuMTE2NDY0LDAuNjY1MDg2IC02LjExODEzMSwwLjEzNDgxMSIKICAgICB0cmFuc2Zvcm09Im1hdHJpeCgwLjM4MjQyMDU3LDAsMCwwLjM4MjQyMDU3LDUuMzM4Njk1NCwwLjQwOTU0MzExKSIgLz48cGF0aAogICAgIHN0eWxlPSJmaWxsOm5vbmU7c3Ryb2tlOnVybCgjbGluZWFyR3JhZGllbnQxMjc0Nik7c3Ryb2tlLXdpZHRoOjAuMzAxMzQ1O3N0cm9rZS1saW5lY2FwOmJ1dHQ7c3Ryb2tlLWxpbmVqb2luOm1pdGVyO3N0cm9rZS1kYXNoYXJyYXk6bm9uZTtzdHJva2UtZGFzaG9mZnNldDowO3N0cm9rZS1vcGFjaXR5OjE7bWFya2VyLWVuZDp1cmwoI1JvdW5kZWRBcnJvdzgxMTcxKSIKICAgICBkPSJtIDIwLjk2Mjg3MywyMC4wMTAxMDEgaCAxMS42NTI1NSBsIDQwLjM5NTUxNCwtMC4wMTAwMSIKICAgICBpZD0icGF0aDk1NTEiIC8+PGNpcmNsZQogICAgIHN0eWxlPSJmaWxsOiNmZjAwMDA7ZmlsbC1vcGFjaXR5OjE7c3Ryb2tlOm5vbmU7c3Ryb2tlLXdpZHRoOjAuMTgwNzg1O3N0cm9rZS1kYXNoYXJyYXk6bm9uZTtzdHJva2UtZGFzaG9mZnNldDowIgogICAgIGlkPSJwYXRoMTc1OTIiCiAgICAgY3g9IjM0LjE5NzQ5OCIKICAgICBjeT0iMTkuOTMwMzg3IgogICAgIHI9IjEuMTk1ODIzMSIgLz48Y2lyY2xlCiAgICAgc3R5bGU9ImZpbGw6IzgwMDA4MDtmaWxsLW9wYWNpdHk6MTtzdHJva2U6bm9uZTtzdHJva2Utd2lkdGg6MC4xODA3ODU7c3Ryb2tlLWRhc2hhcnJheTpub25lO3N0cm9rZS1kYXNob2Zmc2V0OjAiCiAgICAgaWQ9InBhdGgxNzU5Mi05MCIKICAgICBjeD0iMjYuNzcwODExIgogICAgIGN5PSIyMC4wMDExNzkiCiAgICAgcj0iMS4xOTU4MjMxIiAvPjxjaXJjbGUKICAgICBzdHlsZT0iZmlsbDojZmYwMDAwO2ZpbGwtb3BhY2l0eToxO3N0cm9rZTpub25lO3N0cm9rZS13aWR0aDowLjE4MTtzdHJva2UtZGFzaGFycmF5Om5vbmU7c3Ryb2tlLWRhc2hvZmZzZXQ6MCIKICAgICBpZD0icGF0aDE3NTkyLTkiCiAgICAgY3g9Ijc1LjY1MjcwMiIKICAgICBjeT0iMTkuOTMwMzg3IgogICAgIHI9IjEuMTk1ODIzMSIgLz48Y2lyY2xlCiAgICAgc3R5bGU9ImZpbGw6IzAwMDBmZjtmaWxsLW9wYWNpdHk6MTtzdHJva2U6bm9uZTtzdHJva2Utd2lkdGg6MC4xODA3ODU7c3Ryb2tlLWRhc2hhcnJheTpub25lO3N0cm9rZS1kYXNob2Zmc2V0OjAiCiAgICAgaWQ9InBhdGgxNzU5Mi03IgogICAgIGN4PSI3NS42NTI3MDIiCiAgICAgY3k9IjEwLjM2MzgwNiIKICAgICByPSIxLjE5NTgyMzEiIC8+PGNpcmNsZQogICAgIHN0eWxlPSJmaWxsOiMwMDAwZmY7ZmlsbC1vcGFjaXR5OjE7c3Ryb2tlOm5vbmU7c3Ryb2tlLXdpZHRoOjAuMTgwNzg1O3N0cm9rZS1kYXNoYXJyYXk6bm9uZTtzdHJva2UtZGFzaG9mZnNldDowIgogICAgIGlkPSJwYXRoMTc1OTItNy0zIgogICAgIGN4PSIyMy43NTM5NzkiCiAgICAgY3k9IjEuMTk1ODI1MyIKICAgICByPSIxLjE5NTgyMzEiIC8+PGNpcmNsZQogICAgIHN0eWxlPSJmaWxsOiMwMDAwZmY7ZmlsbC1vcGFjaXR5OjE7c3Ryb2tlOm5vbmU7c3Ryb2tlLXdpZHRoOjAuMTgwNzg1O3N0cm9rZS1kYXNoYXJyYXk6bm9uZTtzdHJva2UtZGFzaG9mZnNldDowIgogICAgIGlkPSJwYXRoMTc1OTItNy0zLTAiCiAgICAgY3g9IjE5LjY4ODE3OSIKICAgICBjeT0iMTkuOTMwMzg3IgogICAgIHI9IjEuMTk1ODIzMSIgLz48cGF0aAogICAgIHN0eWxlPSJmaWxsOm5vbmU7c3Ryb2tlOiNkNmI2NTY7c3Ryb2tlLXdpZHRoOjAuMjY2O3N0cm9rZS1saW5lY2FwOmJ1dHQ7c3Ryb2tlLWxpbmVqb2luOm1pdGVyO3N0cm9rZS1taXRlcmxpbWl0OjQ7c3Ryb2tlLWRhc2hhcnJheTpub25lO3N0cm9rZS1vcGFjaXR5OjE7bWFya2VyLWVuZDp1cmwoI21hcmtlcjQxMzA4MzM4NCkiCiAgICAgZD0iTSAwLjMwMDQyMjc2LDMwLjM5NzAyIDEwLjg5OTczMiwyNC4yNDA2MzIiCiAgICAgaWQ9InBhdGgxODI1MiIgLz48cGF0aAogICAgIHN0eWxlPSJmaWxsOm5vbmU7c3Ryb2tlOiNkNmI2NTY7c3Ryb2tlLXdpZHRoOjAuMjY2O3N0cm9rZS1saW5lY2FwOmJ1dHQ7c3Ryb2tlLWxpbmVqb2luOm1pdGVyO3N0cm9rZS1taXRlcmxpbWl0OjQ7c3Ryb2tlLWRhc2hhcnJheTpub25lO3N0cm9rZS1vcGFjaXR5OjE7bWFya2VyLWVuZDp1cmwoI21hcmtlcjQxMzA4MTI1MCkiCiAgICAgZD0iTSAwLjMwMDQyMjc2LDI1Ljc3OTcyOSAxMC44OTk3MzIsMTkuNjIzMzQxIgogICAgIGlkPSJwYXRoMTgyNTItNCIgLz48cGF0aAogICAgIHN0eWxlPSJmaWxsOm5vbmU7c3Ryb2tlOiNkNmI2NTY7c3Ryb2tlLXdpZHRoOjAuMjY2O3N0cm9rZS1saW5lY2FwOmJ1dHQ7c3Ryb2tlLWxpbmVqb2luOm1pdGVyO3N0cm9rZS1taXRlcmxpbWl0OjQ7c3Ryb2tlLWRhc2hhcnJheTpub25lO3N0cm9rZS1vcGFjaXR5OjE7bWFya2VyLWVuZDp1cmwoI21hcmtlcjQxMzA4ODcyMSkiCiAgICAgZD0iTSAwLjMwMDQyMjc2LDIxLjE2MjQzOCAxMC44OTk3MzMsMTUuMDA2MDUiCiAgICAgaWQ9InBhdGgxODI1Mi0xIiAvPjxwYXRoCiAgICAgc3R5bGU9ImZpbGw6bm9uZTtzdHJva2U6I2ZmNmYwMDtzdHJva2Utd2lkdGg6MC4yNjYzNzg7c3Ryb2tlLWxpbmVjYXA6YnV0dDtzdHJva2UtbGluZWpvaW46bWl0ZXI7c3Ryb2tlLWRhc2hhcnJheTpub25lO3N0cm9rZS1vcGFjaXR5OjE7bWFya2VyLWVuZDp1cmwoI21hcmtlcjIyOTgyNTk3MzMyNjE5Mzk1NTE2KSIKICAgICBkPSJNIDYyLjUzMjE1NSwxOS44NDE0MTMgViAxMS44MjEyMjEiCiAgICAgaWQ9InBhdGgyMjkxOCIgLz48cGF0aAogICAgIHN0eWxlPSJmaWxsOm5vbmU7c3Ryb2tlOiNmZjZmMDA7c3Ryb2tlLXdpZHRoOjAuMjY2Mzc4O3N0cm9rZS1saW5lY2FwOmJ1dHQ7c3Ryb2tlLWxpbmVqb2luOm1pdGVyO3N0cm9rZS1kYXNoYXJyYXk6bm9uZTtzdHJva2Utb3BhY2l0eToxO21hcmtlci1lbmQ6dXJsKCNtYXJrZXIyMjk4Mi04NTM2MzMxNTMpIgogICAgIGQ9Ik0gNDcuNDUwODkzLDE5Ljg0MTQwOSBWIDExLjgyMTIxNyIKICAgICBpZD0icGF0aDIyOTE4LTIiIC8+PHBhdGgKICAgICBzdHlsZT0iZmlsbDpub25lO3N0cm9rZTojMDAwMDAwO3N0cm9rZS13aWR0aDowLjIzMDQ1NjtzdHJva2UtbGluZWNhcDpidXR0O3N0cm9rZS1saW5lam9pbjptaXRlcjtzdHJva2UtZGFzaGFycmF5OjAuNjkxMzY3LCAwLjY5MTM2NztzdHJva2UtZGFzaG9mZnNldDowO3N0cm9rZS1vcGFjaXR5OjEiCiAgICAgZD0iTSAyNi44MzI2NTgsMi43NzAxNjIxIDI2LjcwODk2MiwzNi4zMDkwNjYiCiAgICAgaWQ9InBhdGgzNTYzNCIgLz48L3N2Zz4K;" parent="1" vertex="1">
          <mxGeometry x="-8" y="50" width="290" height="144" as="geometry" />
        </mxCell>
        <mxCell id="-H39gwXJbY5dku_L6y5g-5" value="\(T_{\mathrm{amb}}\)" style="text;html=1;strokeColor=none;fillColor=none;align=center;verticalAlign=middle;whiteSpace=wrap;rounded=0;fontSize=10;" parent="1" vertex="1">
          <mxGeometry x="-47" y="60" width="60" height="30" as="geometry" />
        </mxCell>
        <mxCell id="-H39gwXJbY5dku_L6y5g-6" value="\(T_{\mathrm{inlet,1}}\)" style="text;html=1;strokeColor=none;fillColor=none;align=center;verticalAlign=middle;whiteSpace=wrap;rounded=0;fontSize=10;" parent="1" vertex="1">
          <mxGeometry x="29" y="194" width="60" height="30" as="geometry" />
        </mxCell>
        <mxCell id="-H39gwXJbY5dku_L6y5g-7" value="\(T_{\mathrm{inlet,1b}}\)" style="text;html=1;strokeColor=none;fillColor=none;align=center;verticalAlign=middle;whiteSpace=wrap;rounded=0;fontSize=10;" parent="1" vertex="1">
          <mxGeometry x="61" y="214" width="60" height="30" as="geometry" />
        </mxCell>
        <mxCell id="-H39gwXJbY5dku_L6y5g-8" value="\(T_{\mathrm{inlet,3}}\)" style="text;html=1;strokeColor=none;fillColor=none;align=center;verticalAlign=middle;whiteSpace=wrap;rounded=0;fontSize=10;" parent="1" vertex="1">
          <mxGeometry x="282" y="110" width="54" height="30" as="geometry" />
        </mxCell>
        <mxCell id="-H39gwXJbY5dku_L6y5g-9" value="\(T_{\mathrm{inlet,2}}\)" style="text;html=1;strokeColor=none;fillColor=none;align=center;verticalAlign=middle;whiteSpace=wrap;rounded=0;fontSize=10;" parent="1" vertex="1">
          <mxGeometry x="92" y="194" width="60" height="30" as="geometry" />
        </mxCell>
        <mxCell id="-H39gwXJbY5dku_L6y5g-10" value="\(T_{\mathrm{return,1}}\)" style="text;html=1;strokeColor=none;fillColor=none;align=center;verticalAlign=middle;whiteSpace=wrap;rounded=0;fontSize=10;" parent="1" vertex="1">
          <mxGeometry x="52" y="20" width="60" height="30" as="geometry" />
        </mxCell>
        <mxCell id="-H39gwXJbY5dku_L6y5g-11" value="\(T_{\mathrm{return,3}}\)" style="text;html=1;strokeColor=none;fillColor=none;align=center;verticalAlign=middle;whiteSpace=wrap;rounded=0;fontSize=10;" parent="1" vertex="1">
          <mxGeometry x="282" y="74" width="60" height="30" as="geometry" />
        </mxCell>
        <mxCell id="-H39gwXJbY5dku_L6y5g-13" value="\(\dot{Q}_{\mathrm{{i \to r}}}\)" style="text;html=1;strokeColor=none;fillColor=none;align=center;verticalAlign=middle;whiteSpace=wrap;rounded=0;fontSize=10;" parent="1" vertex="1">
          <mxGeometry x="213" y="102" width="60" height="30" as="geometry" />
        </mxCell>
        <mxCell id="-H39gwXJbY5dku_L6y5g-14" value="\(T_{\mathrm{abs,front}}\)" style="text;html=1;strokeColor=none;fillColor=none;align=center;verticalAlign=middle;whiteSpace=wrap;rounded=0;fontSize=10;" parent="1" vertex="1">
          <mxGeometry x="-8" y="20" width="60" height="30" as="geometry" />
        </mxCell>
        <mxCell id="-H39gwXJbY5dku_L6y5g-15" value="\(T_{\mathrm{abs,back}}\)" style="text;html=1;strokeColor=none;fillColor=none;align=center;verticalAlign=middle;whiteSpace=wrap;rounded=0;fontSize=10;" parent="1" vertex="1">
          <mxGeometry x="112" y="20" width="60" height="30" as="geometry" />
        </mxCell>
        <mxCell id="-H39gwXJbY5dku_L6y5g-16" value="\(\dot{Q}_{\mathrm{{sol}}}\)" style="text;html=1;strokeColor=none;fillColor=none;align=center;verticalAlign=middle;whiteSpace=wrap;rounded=0;fontSize=10;" parent="1" vertex="1">
          <mxGeometry x="-58" y="120" width="60" height="30" as="geometry" />
        </mxCell>
        <mxCell id="-H39gwXJbY5dku_L6y5g-17" value="" style="endArrow=none;html=1;rounded=0;startArrow=oval;startFill=1;" parent="1" edge="1">
          <mxGeometry width="50" height="50" relative="1" as="geometry">
            <mxPoint x="82" y="100" as="sourcePoint" />
            <mxPoint x="27" y="49" as="targetPoint" />
          </mxGeometry>
        </mxCell>
        <mxCell id="-H39gwXJbY5dku_L6y5g-18" value="" style="endArrow=none;html=1;rounded=0;startArrow=oval;startFill=1;entryX=0.5;entryY=1;entryDx=0;entryDy=0;" parent="1" target="-H39gwXJbY5dku_L6y5g-15" edge="1">
          <mxGeometry width="50" height="50" relative="1" as="geometry">
            <mxPoint x="104" y="100" as="sourcePoint" />
            <mxPoint x="37" y="59" as="targetPoint" />
          </mxGeometry>
        </mxCell>
        <mxCell id="-H39gwXJbY5dku_L6y5g-19" value="" style="endArrow=none;html=1;rounded=0;startArrow=oval;startFill=1;endSize=6;startSize=2;" parent="1" edge="1">
          <mxGeometry width="50" height="50" relative="1" as="geometry">
            <mxPoint x="66" y="125" as="sourcePoint" />
            <mxPoint x="65" y="201" as="targetPoint" />
          </mxGeometry>
        </mxCell>
        <mxCell id="-H39gwXJbY5dku_L6y5g-20" value="" style="endArrow=none;html=1;rounded=0;startArrow=oval;startFill=1;endSize=6;startSize=2;" parent="1" edge="1">
          <mxGeometry width="50" height="50" relative="1" as="geometry">
            <mxPoint x="121" y="125" as="sourcePoint" />
            <mxPoint x="120" y="201" as="targetPoint" />
          </mxGeometry>
        </mxCell>
        <mxCell id="-H39gwXJbY5dku_L6y5g-21" value="" style="endArrow=none;html=1;rounded=0;startArrow=oval;startFill=1;endSize=6;startSize=2;" parent="1" edge="1">
          <mxGeometry width="50" height="50" relative="1" as="geometry">
            <mxPoint x="93" y="126" as="sourcePoint" />
            <mxPoint x="93" y="220" as="targetPoint" />
          </mxGeometry>
        </mxCell>
        <mxCell id="UmLx7-oMeZBbfjY2jRI7-2" value="" style="endArrow=oval;startArrow=oval;html=1;rounded=0;startFill=1;endFill=1;" parent="1" edge="1">
          <mxGeometry width="50" height="50" relative="1" as="geometry">
            <mxPoint x="75" y="251" as="sourcePoint" />
            <mxPoint x="115" y="251" as="targetPoint" />
          </mxGeometry>
        </mxCell>
        <mxCell id="UmLx7-oMeZBbfjY2jRI7-3" value="" style="endArrow=oval;startArrow=oval;html=1;rounded=0;startFill=1;endFill=1;" parent="1" edge="1">
          <mxGeometry width="50" height="50" relative="1" as="geometry">
            <mxPoint x="115" y="251" as="sourcePoint" />
            <mxPoint x="272" y="251" as="targetPoint" />
          </mxGeometry>
        </mxCell>
        <mxCell id="UmLx7-oMeZBbfjY2jRI7-4" value="&lt;font style=&quot;font-size: 10px;&quot;&gt;Heating zone&lt;/font&gt;" style="text;html=1;strokeColor=none;fillColor=none;align=center;verticalAlign=middle;whiteSpace=wrap;rounded=0;" parent="1" vertex="1">
          <mxGeometry x="65" y="255" width="60" height="30" as="geometry" />
        </mxCell>
        <mxCell id="UmLx7-oMeZBbfjY2jRI7-5" value="&lt;font style=&quot;font-size: 10px;&quot;&gt;Transport zone&lt;/font&gt;" style="text;html=1;strokeColor=none;fillColor=none;align=center;verticalAlign=middle;whiteSpace=wrap;rounded=0;" parent="1" vertex="1">
          <mxGeometry x="144" y="255" width="98" height="30" as="geometry" />
        </mxCell>
        <mxCell id="UmLx7-oMeZBbfjY2jRI7-6" value="" style="endArrow=block;html=1;endFill=1;endSize=5;strokeColor=#ff6f00;rounded=0;" parent="1" edge="1">
          <mxGeometry width="50" height="50" relative="1" as="geometry">
            <mxPoint x="134.75" y="126" as="sourcePoint" />
            <mxPoint x="135" y="82" as="targetPoint" />
          </mxGeometry>
        </mxCell>
        <mxCell id="PVWdocBqjEG74WYrt1OF-1" value="" style="endArrow=block;html=1;endFill=1;endSize=5;strokeColor=#ff6f00;rounded=0;entryX=0.003;entryY=0.803;entryDx=0;entryDy=0;entryPerimeter=0;" parent="1" edge="1">
          <mxGeometry width="50" height="50" relative="1" as="geometry">
            <mxPoint x="35.75" y="159" as="sourcePoint" />
            <mxPoint x="-2.130000000000109" y="181.63200000000006" as="targetPoint" />
          </mxGeometry>
        </mxCell>
        <mxCell id="PVWdocBqjEG74WYrt1OF-2" value="" style="endArrow=block;html=1;endFill=1;endSize=5;strokeColor=#ff6f00;rounded=0;entryX=0.003;entryY=0.803;entryDx=0;entryDy=0;entryPerimeter=0;" parent="1" edge="1">
          <mxGeometry width="50" height="50" relative="1" as="geometry">
            <mxPoint x="36.75" y="172" as="sourcePoint" />
            <mxPoint x="-1.1300000000001091" y="194.63200000000006" as="targetPoint" />
          </mxGeometry>
        </mxCell>
        <mxCell id="PVWdocBqjEG74WYrt1OF-3" value="\(\dot{Q}_{\mathrm{{loss,rad}}}\)" style="text;html=1;strokeColor=none;fillColor=none;align=center;verticalAlign=middle;whiteSpace=wrap;rounded=0;fontSize=10;" parent="1" vertex="1">
          <mxGeometry x="-53" y="170" width="60" height="30" as="geometry" />
        </mxCell>
        <mxCell id="PVWdocBqjEG74WYrt1OF-6" value="" style="endArrow=block;html=1;endFill=1;endSize=5;strokeColor=#ff6f00;rounded=1;" parent="1" edge="1">
          <mxGeometry width="50" height="50" relative="1" as="geometry">
            <mxPoint x="46.75" y="143" as="sourcePoint" />
            <mxPoint x="47" y="99" as="targetPoint" />
            <Array as="points">
              <mxPoint x="53" y="129" />
              <mxPoint x="42" y="115" />
            </Array>
          </mxGeometry>
        </mxCell>
        <mxCell id="PVWdocBqjEG74WYrt1OF-7" value="\(\dot{Q}_{\mathrm{{loss,conv}}}\)" style="text;html=1;strokeColor=none;fillColor=none;align=center;verticalAlign=middle;whiteSpace=wrap;rounded=0;fontSize=10;" parent="1" vertex="1">
          <mxGeometry x="-3" y="74" width="60" height="30" as="geometry" />
        </mxCell>
      </root>
    </mxGraphModel>
  </diagram>
</mxfile>
